<?xml version="1.0" standalone="no"?>
<!DOCTYPE svg PUBLIC "-//W3C//DTD SVG 20010904//EN"
 "http://www.w3.org/TR/2001/REC-SVG-20010904/DTD/svg10.dtd">
<svg version="1.0" xmlns="http://www.w3.org/2000/svg"
 width="1005.000000pt" height="1005.000000pt" viewBox="0 0 1005.000000 1005.000000"
 preserveAspectRatio="xMidYMid meet">
<metadata>
Created by potrace 1.14, written by Peter Selinger 2001-2017
</metadata>
<g transform="translate(0.000000,1005.000000) scale(0.100000,-0.100000)"
fill="#000000" stroke="none">
<path d="M5405 9973 c-36 -9 -38 -21 -10 -57 35 -46 61 -117 70 -191 24 -212
-162 -522 -355 -590 -39 -14 -40 -13 -52 13 -16 32 -52 52 -95 52 -25 0 -33 4
-33 18 0 10 -7 27 -16 38 -14 17 -14 17 -6 0 5 -10 6 -35 2 -56 -7 -37 -6 -38
17 -29 38 14 79 11 103 -9 21 -17 21 -19 6 -34 -15 -16 -14 -18 6 -33 l23 -16
-35 -31 c-19 -17 -47 -35 -62 -40 l-27 -10 20 -27 c30 -41 17 -104 -20 -94
-13 3 -20 -2 -24 -17 -4 -16 -11 -21 -22 -16 -9 3 -23 6 -30 6 -7 0 -28 14
-45 31 l-31 32 -16 -23 c-17 -25 -78 -54 -93 -45 -6 4 -10 15 -10 25 0 14 -7
18 -27 17 -23 -2 -29 2 -31 25 -4 31 22 86 44 95 22 8 16 23 -10 23 -28 0 -76
45 -76 71 0 11 4 19 10 19 5 0 14 9 20 20 11 20 10 20 -22 7 -23 -9 -33 -20
-33 -35 0 -12 -4 -23 -10 -24 -16 -3 -121 141 -157 215 -37 78 -49 76 -19 -2
30 -79 126 -201 198 -251 52 -35 61 -46 53 -60 -8 -15 -16 -16 -42 -10 -41 10
-88 33 -88 43 0 4 -6 7 -12 7 -23 0 -108 81 -150 142 -49 73 -110 201 -133
283 -10 33 -36 109 -58 169 -33 87 -50 119 -91 163 -42 47 -135 113 -158 113
-21 0 -4 -22 30 -39 21 -11 61 -40 90 -66 63 -57 103 -136 161 -320 22 -71 55
-159 71 -194 41 -87 114 -195 151 -224 l30 -23 -41 -13 c-33 -10 -48 -22 -72
-62 l-31 -49 -41 33 c-23 18 -79 64 -126 101 -146 117 -302 262 -435 406 -70
76 -134 141 -142 144 -31 12 -98 -64 -234 -264 -128 -188 -249 -387 -249 -409
0 -11 -20 -58 -45 -106 -44 -83 -45 -86 -29 -111 19 -29 197 -174 266 -217 26
-16 45 -34 42 -39 -3 -4 -26 -19 -52 -32 -55 -28 -185 -119 -261 -184 -100
-86 -281 -310 -281 -349 0 -30 30 -9 58 40 35 61 152 198 243 281 60 56 231
176 250 176 5 0 33 16 63 35 30 19 60 35 66 35 6 0 25 7 41 16 17 8 39 17 49
19 10 2 50 18 89 35 91 39 307 112 433 144 349 90 820 115 1083 58 99 -22 364
-100 380 -112 6 -4 78 -30 160 -58 269 -91 491 -209 690 -369 134 -107 188
-161 290 -287 188 -230 278 -373 366 -586 57 -140 121 -315 151 -415 16 -55
38 -116 48 -135 66 -130 158 -532 191 -835 12 -117 7 -315 -12 -407 -6 -29
-17 -86 -24 -126 -12 -66 -35 -142 -117 -387 -46 -137 -140 -327 -223 -451
-41 -61 -83 -118 -93 -127 -10 -10 -51 -21 -96 -27 -86 -12 -140 -29 -202 -64
l-42 -24 -5 27 c-3 15 3 45 15 71 91 203 132 465 94 608 -17 64 -59 138 -87
153 -38 20 -121 23 -163 5 -21 -9 -40 -16 -42 -16 -2 0 -4 17 -4 39 0 21 -5
63 -11 92 -7 30 -12 67 -13 82 -1 25 -12 34 -96 78 -147 78 -338 233 -454 369
l-39 45 53 -100 c29 -55 75 -139 102 -187 110 -195 208 -430 208 -499 0 -30 2
-32 15 -18 13 13 12 24 -9 94 -13 44 -39 118 -58 165 -62 152 -61 159 28 114
47 -24 53 -31 87 -107 46 -102 77 -240 60 -265 -33 -47 -82 -141 -89 -167 -3
-17 -14 -38 -22 -48 -8 -9 -12 -20 -9 -23 3 -4 0 -19 -9 -35 -13 -26 -13 -29
1 -29 12 0 15 -15 15 -83 0 -107 28 -219 80 -314 22 -41 40 -77 40 -80 0 -2
-15 4 -32 15 -77 47 -219 66 -298 39 -25 -9 -40 -23 -53 -49 -10 -21 -25 -38
-33 -38 -57 0 -236 145 -276 224 -17 32 -18 43 -9 59 14 21 14 20 -17 36 -18
10 -22 19 -20 44 3 28 8 32 52 43 28 7 54 10 59 7 6 -3 7 -1 4 4 -4 6 0 13 8
17 34 13 12 26 -45 26 -33 0 -76 6 -94 14 -32 13 -34 18 -59 122 -35 150 -26
154 42 18 26 -52 48 -84 61 -87 22 -6 19 3 -10 38 -17 20 -60 92 -60 101 0 2
18 -5 40 -16 21 -11 45 -20 52 -19 9 0 8 3 -2 7 -9 4 -49 32 -91 63 -97 72
-242 220 -332 337 -83 108 -177 243 -177 254 0 5 10 8 23 9 17 1 15 3 -10 10
-25 7 -39 21 -57 57 -14 26 -32 56 -41 67 -14 18 -14 17 1 -20 31 -78 35 -88
31 -91 -2 -2 -46 0 -97 5 -113 10 -286 -2 -429 -30 -57 -11 -106 -18 -108 -15
-8 8 -139 288 -158 339 -10 26 -20 46 -22 44 -2 -2 12 -45 31 -95 18 -50 41
-120 51 -156 10 -36 22 -63 27 -59 6 3 7 -4 3 -18 -4 -17 -3 -20 3 -10 8 11
14 7 27 -18 19 -38 11 -56 -12 -26 -15 20 -15 20 -10 -2 4 -17 -2 -24 -27 -33
-67 -25 -76 -30 -76 -40 0 -14 5 -13 56 10 24 12 48 18 53 15 8 -5 31 -91 102
-395 17 -74 32 -156 33 -182 0 -25 3 -44 6 -41 3 3 11 -17 17 -44 l13 -48 -4
53 c-2 33 1 52 8 52 7 0 7 3 -1 8 -6 4 -23 64 -38 132 -14 69 -46 202 -70 297
-25 95 -45 175 -45 178 0 3 6 5 13 5 7 0 28 -28 46 -62 82 -149 208 -332 309
-448 l40 -45 -47 -12 -46 -12 55 5 c50 4 58 1 88 -25 l33 -28 -40 -7 c-53 -8
-204 -63 -227 -82 -18 -15 -18 -15 -1 -10 69 22 68 18 -7 -57 -48 -48 -76 -84
-76 -97 l0 -22 33 22 c58 39 156 80 250 105 107 29 124 31 109 12 -40 -48 -55
-269 -26 -386 19 -74 41 -124 53 -117 4 3 13 31 20 62 15 64 59 120 127 160
50 29 64 25 64 -17 0 -18 4 -28 10 -24 6 3 10 18 10 32 0 36 31 83 59 90 42
10 73 -16 91 -77 l16 -55 9 34 10 34 62 -67 c70 -75 82 -103 63 -155 -7 -20
-15 -43 -18 -51 -21 -56 107 120 164 227 15 29 31 53 36 53 4 0 16 -17 27 -38
21 -40 104 -125 161 -163 25 -17 36 -32 37 -53 1 -18 25 -58 60 -105 32 -42
78 -115 101 -163 27 -55 61 -107 93 -139 27 -28 49 -52 47 -54 -2 -1 -25 -7
-51 -14 -42 -10 -53 -9 -95 9 -25 11 -54 28 -64 37 -16 15 -21 14 -57 -10 -41
-28 -98 -92 -199 -224 -77 -102 -84 -116 -33 -68 l41 39 0 -94 c0 -124 30
-380 59 -503 8 -33 6 -42 -16 -67 -40 -48 -189 -140 -312 -193 -99 -43 -124
-50 -187 -52 -48 -1 -81 -7 -98 -18 -15 -10 -36 -15 -53 -11 -19 3 -44 -3 -75
-19 -27 -13 -48 -21 -48 -17 0 4 -9 19 -21 34 -17 21 -24 24 -40 15 -15 -7
-24 -7 -34 1 -10 8 -21 3 -49 -26 -20 -20 -36 -43 -36 -51 0 -16 -12 -17 -28
-1 -7 7 -36 15 -64 18 l-52 5 -12 74 c-7 40 -18 87 -25 103 -12 28 -11 33 12
51 29 25 26 24 -120 -28 -66 -23 -130 -39 -176 -42 -66 -5 -82 -2 -206 40
-261 89 -557 225 -710 327 -152 102 -266 221 -342 359 -40 73 -86 235 -112
391 -17 110 -35 148 -145 323 -86 138 -123 175 -140 147 -7 -11 -96 12 -145
38 -28 14 -29 14 -16 -1 11 -15 11 -17 -1 -17 -28 0 -150 144 -208 245 -18 31
-34 55 -35 53 -5 -4 42 -228 61 -294 9 -30 14 -57 12 -59 -1 -1 -21 -6 -44 -9
-40 -7 -41 -6 -57 31 -127 291 -200 723 -208 1223 -1 58 -4 92 -6 75 -2 -16
-19 -109 -38 -205 -63 -330 -79 -473 -79 -710 0 -178 4 -236 22 -338 25 -139
53 -221 84 -248 19 -18 19 -16 -4 31 -91 180 -113 576 -53 925 23 133 44 213
45 174 2 -91 68 -470 110 -635 22 -84 85 -270 105 -308 11 -21 9 -29 -8 -58
-19 -33 -19 -36 -3 -101 11 -45 31 -88 61 -132 68 -98 141 -190 191 -240 24
-25 44 -48 44 -51 0 -3 -33 3 -73 13 -154 41 -286 33 -309 -17 -26 -57 57
-218 168 -329 116 -115 199 -151 282 -123 52 18 52 21 12 -133 -48 -187 -39
-360 29 -536 17 -43 42 -95 56 -116 29 -42 98 -239 87 -249 -4 -4 -68 -29
-142 -56 l-135 -50 -446 147 c-245 82 -461 156 -480 165 -18 10 -87 61 -154
115 -448 361 -959 657 -1202 696 -54 8 -59 -12 -5 -22 71 -13 237 -76 342
-130 131 -66 284 -166 448 -290 112 -85 116 -77 7 14 -144 120 232 -151 447
-322 48 -38 106 -77 130 -87 72 -30 343 -129 354 -129 6 0 119 -36 252 -80
133 -44 250 -80 259 -81 24 -1 -53 -34 -98 -43 -20 -3 -46 -17 -59 -31 l-23
-24 31 -38 c78 -99 260 -254 367 -313 74 -41 71 -38 -30 37 -154 114 -325 279
-325 312 0 6 8 15 18 20 24 13 464 172 467 169 1 -2 13 -24 28 -49 14 -25 33
-51 41 -59 24 -19 20 -26 -31 -45 -201 -75 -253 -98 -253 -110 0 -37 367 -253
406 -238 13 5 48 0 284 -43 138 -26 218 -69 323 -175 73 -74 87 -92 77 -104
-7 -8 -19 -15 -27 -15 -9 0 -57 -16 -107 -36 -50 -19 -115 -45 -143 -56 -31
-12 -50 -25 -46 -31 3 -6 1 -7 -5 -3 -13 8 -92 -13 -92 -24 0 -4 -19 -10 -42
-14 -24 -4 -113 -27 -198 -50 -85 -24 -167 -47 -182 -50 -16 -4 -28 -10 -28
-14 0 -4 34 -90 75 -191 42 -102 72 -188 68 -192 -5 -3 -35 -16 -68 -28 -60
-21 -74 -18 -75 16 0 30 -179 378 -227 441 -14 18 -23 39 -20 46 6 16 73 34
292 81 273 58 362 82 457 121 108 45 110 58 1 16 -101 -40 -439 -119 -452
-106 -6 5 178 201 207 220 58 38 296 -4 340 -61 16 -20 24 -23 47 -16 l29 7
-35 26 c-83 63 -135 76 -327 88 -136 8 -164 13 -258 45 -126 43 -156 42 -53
-3 67 -29 107 -41 192 -57 l28 -6 -63 -71 c-35 -39 -83 -93 -107 -119 l-43
-48 -71 35 c-39 20 -105 60 -146 89 -91 63 -171 110 -171 100 0 -15 178 -140
288 -202 35 -19 61 -38 58 -40 -3 -3 -55 -19 -117 -37 -149 -41 -152 -47 -99
-149 l40 -76 -80 -117 c-45 -64 -123 -169 -175 -233 -154 -190 -135 -173 -183
-163 -44 10 -101 4 -412 -44 -91 -13 -183 -27 -205 -31 -22 -3 -47 -9 -55 -13
-17 -9 -353 -366 -358 -381 -4 -11 337 0 353 11 6 4 27 13 49 20 35 11 43 10
95 -14 66 -32 104 -26 115 20 9 36 61 110 90 129 28 18 60 9 91 -25 11 -12 34
-31 50 -42 21 -14 18 -10 -9 14 -25 22 -37 39 -32 47 6 9 14 7 31 -9 l23 -22
-16 36 c-16 34 -44 47 -57 26 -10 -16 -23 -12 -30 9 -17 53 -168 115 -335 136
-50 7 -53 6 -41 -9 8 -10 10 -16 4 -14 -6 2 -47 -30 -91 -69 -44 -40 -84 -73
-89 -73 -4 0 -1 6 7 13 8 7 38 39 65 71 90 108 97 113 193 129 160 29 364 50
426 44 51 -5 64 -10 82 -33 12 -15 25 -41 28 -58 4 -17 27 -77 52 -134 47
-104 49 -118 28 -189 -11 -37 11 -33 366 77 85 27 211 65 280 86 69 20 336
101 593 180 258 79 471 144 475 143 19 -1 -124 -48 -438 -144 -190 -58 -388
-119 -440 -135 -93 -28 -97 -31 -176 -110 -44 -44 -86 -80 -92 -80 -20 0 -13
25 19 69 29 41 33 61 9 46 -16 -10 -100 -137 -95 -145 4 -7 417 -2 424 5 8 8
-9 53 -23 58 -7 3 -32 1 -55 -4 -54 -12 -73 -1 -35 20 20 11 58 16 128 17 84
1 101 -2 114 -17 11 -13 19 -15 28 -8 7 6 25 9 41 7 l28 -4 -32 -19 c-18 -11
-33 -28 -33 -37 0 -26 84 -24 134 3 29 15 48 19 77 14 36 -6 65 -25 38 -25 -7
0 -10 -3 -6 -6 9 -9 387 -12 393 -2 8 12 -83 48 -151 60 -47 7 -73 6 -120 -7
-51 -13 -66 -14 -105 -2 l-45 13 55 21 c30 12 74 27 96 33 26 6 48 20 58 35
18 28 36 33 36 10 0 -17 32 -20 60 -5 15 8 20 5 28 -20 8 -21 30 -40 86 -72
42 -24 76 -46 76 -50 0 -5 -10 -8 -22 -9 -13 -1 -4 -5 20 -10 65 -12 240 -4
292 15 64 22 125 21 150 -4 18 -18 33 -20 169 -20 194 0 203 2 230 53 12 23
19 33 16 22 -17 -56 -18 -75 -2 -69 9 3 19 19 22 34 10 44 42 80 73 80 41 0
244 -40 272 -54 17 -8 24 -19 22 -34 l-3 -21 261 -3 c243 -3 313 1 261 15 -12
3 -21 10 -21 15 0 7 11 7 32 1 18 -5 49 -10 68 -10 l35 -1 -30 -8 c-27 -7 -25
-8 18 -9 26 0 47 3 47 7 0 4 -24 49 -54 100 -30 50 -56 100 -58 109 -2 10 -8
18 -15 18 -24 0 -24 15 -2 52 13 21 25 43 25 48 1 6 2 16 3 23 1 17 180 202
195 202 6 0 27 14 46 32 19 18 40 31 45 29 6 -1 7 1 3 5 -4 4 -3 13 3 21 17
20 2 16 -18 -6 -10 -10 -31 -26 -48 -36 -17 -10 -4 6 30 37 33 31 57 59 54 63
-4 3 3 17 16 31 23 25 42 33 29 13 -4 -7 7 -1 25 12 37 27 42 38 6 15 -14 -9
-25 -14 -25 -11 0 10 194 245 202 245 5 0 6 4 3 10 -3 5 4 28 15 50 31 61 21
86 -12 30 -57 -95 -406 -510 -643 -764 -11 -11 -19 -24 -17 -29 1 -4 -4 -7
-11 -7 -14 0 -87 70 -87 84 0 14 153 210 290 371 100 117 212 261 228 291 20
39 -16 54 -418 172 -74 22 -172 50 -217 62 -55 15 -83 27 -83 36 0 20 138 157
237 235 174 137 596 370 1028 569 227 104 380 172 455 203 36 15 81 37 100 48
29 18 32 23 19 33 -9 6 -14 16 -13 21 2 6 -22 28 -53 50 -71 50 -255 267 -240
282 8 7 358 -225 376 -249 7 -10 24 -18 36 -18 32 0 165 -82 162 -100 -4 -26
-360 -214 -522 -275 -33 -13 -89 -37 -125 -53 -36 -17 -101 -47 -144 -67 -43
-20 -102 -42 -130 -50 -28 -7 -78 -26 -111 -43 -33 -16 -98 -46 -145 -67 -175
-78 -456 -235 -475 -264 -3 -5 -29 -23 -58 -39 -63 -37 -172 -136 -163 -150 8
-13 121 -50 311 -101 83 -22 208 -61 279 -86 140 -50 177 -55 69 -10 -181 75
-191 80 -183 96 7 11 3 15 -18 16 -51 2 -71 7 -65 17 4 5 -3 7 -15 4 -12 -4
-20 -2 -16 3 3 5 -3 10 -13 11 -10 1 -25 2 -33 4 -8 1 -30 2 -49 3 -25 1 -31
4 -24 14 17 22 22 46 11 53 -7 4 -8 3 -4 -4 7 -11 3 -14 -26 -16 -7 -1 -16 -4
-19 -8 -7 -11 -59 14 -59 29 0 6 15 27 33 46 18 19 31 39 30 44 -2 5 12 18 32
29 19 10 35 21 35 25 0 3 21 17 48 30 26 13 56 32 67 41 31 26 420 217 608
298 192 83 174 83 289 -2 53 -40 80 -69 122 -137 30 -47 63 -106 74 -131 11
-25 54 -116 96 -204 42 -87 76 -160 76 -162 0 -1 -21 -5 -47 -7 l-48 -3 52 -2
c59 -2 54 4 149 -162 73 -127 234 -277 562 -524 78 -59 142 -110 142 -112 0
-2 -24 8 -52 22 -29 15 -116 55 -193 89 -196 86 -416 229 -553 359 -66 62 -81
90 -92 169 -8 54 -8 51 -4 -28 7 -107 47 -403 138 -1015 7 -48 16 -75 24 -74
6 1 73 2 148 3 l136 1 -15 23 c-8 13 -17 32 -19 43 -2 10 -6 21 -10 24 -29 22
-338 744 -354 826 -8 45 -13 47 126 -62 124 -97 273 -197 355 -239 32 -16 99
-68 149 -114 94 -86 238 -231 230 -231 -2 0 19 -23 48 -50 29 -28 49 -50 43
-49 -5 1 -18 -1 -28 -6 -10 -4 -21 -4 -25 0 -4 4 -1 10 6 12 6 3 12 9 12 15 0
6 -7 8 -15 4 -8 -3 -15 -1 -15 4 0 6 -7 10 -16 10 -8 0 -12 -5 -9 -10 3 -6 1
-10 -6 -10 -8 0 -7 -5 2 -17 13 -15 12 -15 -8 -5 -18 10 -21 9 -19 -6 2 -9 -4
-22 -13 -29 -14 -10 -12 -12 12 -18 29 -8 35 -19 15 -31 -7 -4 -8 -3 -4 4 4 7
1 12 -7 12 -10 0 -13 -8 -9 -25 3 -21 1 -24 -13 -19 -10 4 -15 14 -12 25 3 11
1 17 -4 13 -5 -3 -9 0 -9 6 0 6 -5 8 -10 5 -6 -4 -8 -10 -5 -15 3 -5 -3 -7
-12 -5 -12 2 -23 -6 -30 -22 -14 -30 -3 -36 56 -30 22 2 41 0 41 -5 0 -5 4 -7
9 -3 5 3 12 2 15 -3 3 -5 -93 -9 -212 -11 -119 -1 -219 -4 -221 -7 -2 -2 162
-4 365 -4 275 0 373 3 382 12 9 9 12 9 12 0 0 -9 39 -12 146 -12 94 0 143 4
139 10 -8 13 2 13 28 -2 30 -17 698 -12 709 5 6 9 8 9 8 1 0 -7 9 -14 19 -17
16 -4 22 5 34 52 25 91 37 152 46 229 5 41 11 75 13 78 3 2 41 -12 87 -31 153
-65 337 -114 479 -129 44 -5 62 -4 57 3 -3 6 -23 11 -43 11 -87 1 -296 59
-479 133 l-103 42 0 76 c0 71 -16 147 -28 135 -3 -3 -10 1 -16 9 -6 8 -60 24
-121 37 -100 21 -136 23 -403 23 l-294 0 4 247 c1 137 4 248 6 248 2 0 17 -7
35 -16 l31 -17 -37 35 c-48 46 -50 73 -4 64 132 -25 391 -34 512 -18 28 4 -50
8 -175 9 -140 1 -251 6 -295 15 l-70 13 -32 185 c-35 205 -43 236 -73 287 -11
19 -20 36 -20 38 0 2 16 9 36 15 153 51 485 239 632 358 23 19 45 32 49 28 4
-3 -4 -39 -16 -79 -70 -219 -233 -567 -342 -731 -32 -49 -59 -93 -59 -98 0 -4
17 -6 39 -4 41 4 171 63 171 77 0 5 6 9 13 9 20 0 137 101 130 113 -3 5 -1 7
4 4 22 -14 171 122 158 144 -4 5 -1 8 6 7 6 -2 14 3 17 11 3 9 0 11 -8 6 -9
-5 -11 -4 -6 3 4 7 15 12 24 12 23 0 97 87 79 93 -9 3 -9 8 2 21 8 9 20 15 27
12 8 -3 11 0 8 8 -3 7 4 20 15 30 11 10 18 23 14 29 -4 6 -1 7 6 2 12 -7 71
40 71 57 0 4 17 24 38 44 20 20 30 32 21 25 -9 -6 -20 -7 -24 -3 -5 4 -5 0 0
-8 6 -12 5 -12 -5 -3 -12 11 -5 37 9 29 4 -3 17 15 29 39 12 25 17 45 12 45
-6 0 -10 -6 -10 -14 0 -8 -7 -17 -16 -20 -24 -9 -26 -8 -20 12 12 36 -25 20
-45 -20 -11 -21 -17 -38 -14 -38 3 0 -3 -10 -15 -22 -11 -12 -20 -28 -20 -35
0 -7 -4 -13 -10 -13 -5 0 -10 -6 -10 -13 0 -18 -44 -63 -125 -127 -38 -30 -84
-69 -102 -86 -18 -18 -33 -30 -33 -28 0 3 -12 -4 -27 -13 -15 -10 -28 -17 -30
-16 -8 6 -32 -10 -27 -18 3 -5 2 -9 -3 -8 -22 4 -37 -5 -97 -56 l-65 -56 16
38 c8 21 28 63 43 93 15 30 54 120 87 200 105 257 109 269 137 410 8 41 22
108 31 149 29 132 45 282 52 464 3 97 10 177 15 177 5 0 9 10 8 23 -1 12 -2
58 -1 103 l1 81 108 -29 c59 -16 172 -39 252 -52 80 -14 134 -25 120 -25 l-25
-1 0 -133 c0 -72 -3 -136 -6 -142 -3 -5 -3 -36 0 -67 5 -36 3 -56 -3 -55 -6 1
-12 -9 -14 -22 -3 -17 0 -21 10 -16 10 6 10 5 1 -5 -6 -7 -9 -19 -6 -28 4 -10
2 -13 -5 -8 -8 5 -12 0 -12 -13 0 -12 6 -21 13 -22 6 0 3 -4 -8 -9 -11 -5 -15
-9 -9 -9 7 -1 15 -8 18 -17 5 -13 2 -15 -15 -11 -18 5 -20 2 -15 -19 4 -15 2
-24 -5 -24 -7 0 -9 -9 -6 -21 3 -12 3 -18 0 -15 -9 8 -33 -63 -33 -96 0 -15
-4 -29 -9 -32 -10 -6 -64 -141 -61 -152 1 -4 -3 -10 -8 -13 -5 -3 -17 -23 -26
-45 -15 -37 -15 -38 4 -33 22 6 27 -12 8 -31 -9 -9 -7 -12 9 -12 21 0 55 48
127 184 69 129 152 346 142 372 -3 8 -2 12 3 9 5 -3 14 18 20 47 6 29 14 64
17 78 14 65 25 165 20 184 -3 11 0 26 5 33 6 7 9 30 7 52 -2 22 0 37 4 35 5
-3 8 4 8 15 0 21 -16 37 -22 22 -1 -5 -9 -3 -16 5 -11 12 -1 14 68 14 61 0 80
3 80 14 0 10 -30 15 -132 20 -182 10 -327 31 -493 71 -353 86 -471 154 -814
474 -287 267 -603 697 -831 1134 -106 202 -185 396 -305 747 -88 259 -103 312
-115 420 -23 210 -99 549 -161 720 -42 117 -52 146 -98 295 -23 72 -59 171
-80 220 -22 50 -37 92 -35 95 3 2 8 0 12 -6 4 -6 55 -49 114 -95 116 -92 275
-185 402 -235 l81 -33 116 -143 c64 -79 156 -183 204 -233 94 -96 97 -90 5 11
-109 120 -128 141 -214 247 -49 59 -86 110 -84 112 2 2 40 -7 83 -21 82 -26
271 -67 360 -79 28 -3 56 -10 63 -14 6 -4 45 -108 86 -231 75 -226 120 -352
131 -370 12 -19 -14 -10 -43 15 -17 14 -33 25 -38 25 -4 0 -37 26 -73 58 -74
66 -118 95 -56 38 158 -146 465 -384 568 -439 31 -17 31 -17 8 0 -299 219
-290 212 -326 282 -28 57 -149 402 -200 574 l-14 47 42 0 c40 0 248 -51 353
-86 222 -74 460 -243 672 -477 167 -185 218 -294 271 -577 30 -160 30 -160 42
-160 12 0 77 70 141 150 48 60 48 89 4 198 -76 184 -298 464 -491 619 -244
196 -475 300 -796 358 -186 33 -234 44 -253 58 -9 7 -47 121 -91 276 -95 330
-176 573 -260 781 -202 498 -431 893 -663 1140 -107 115 -194 161 -360 190
l-72 13 -56 106 c-94 179 -112 193 -184 149 -19 -12 -150 -91 -290 -176 -140
-85 -273 -167 -295 -182 -22 -15 -98 -62 -170 -105 -71 -43 -151 -93 -176
-111 l-46 -34 -67 23 -66 22 54 43 c94 76 193 210 281 382 100 194 146 258
221 306 28 18 74 37 100 41 60 10 66 28 24 76 -63 73 -230 98 -314 49 -31 -18
-31 -18 -67 10 -57 45 -177 69 -254 51z m157 -23 c21 -6 58 -26 83 -46 43 -32
47 -33 73 -20 46 23 130 39 170 31 70 -13 152 -58 152 -85 0 -4 -15 -11 -33
-14 -127 -24 -211 -123 -387 -461 -129 -248 -322 -393 -547 -412 -41 -3 -73
-2 -73 3 0 5 -3 19 -6 30 -5 20 0 23 63 34 38 6 83 20 99 31 l29 20 -30 -7
c-16 -4 -40 -11 -53 -15 -13 -5 -33 -9 -44 -9 l-21 0 21 23 c12 13 22 27 22
33 0 5 30 24 66 43 94 49 207 164 262 268 52 99 87 248 78 334 -7 69 -39 160
-66 184 -37 33 -25 45 43 45 34 0 79 -5 99 -10z m-1983 -442 c220 -249 588
-570 790 -689 33 -20 58 -38 55 -41 -3 -3 -41 -4 -85 -2 -45 2 -90 -2 -104 -8
-21 -9 -29 -7 -57 15 -18 15 -90 70 -160 123 -71 54 -128 101 -128 106 0 5 -3
7 -8 4 -10 -6 -142 103 -275 227 -57 53 -107 97 -110 97 -17 0 -176 -219 -249
-344 l-30 -51 63 -59 c96 -88 235 -203 295 -243 30 -20 54 -39 54 -44 0 -4
-25 -15 -55 -23 l-54 -16 -68 41 c-126 77 -318 236 -365 302 l-20 27 108 173
c164 263 311 467 337 467 5 0 35 -28 66 -62z m2984 25 c133 -211 362 -675 347
-703 -11 -20 -261 -160 -347 -194 -32 -13 -88 -37 -124 -54 -63 -28 -418 -152
-438 -152 -13 0 -121 64 -121 71 0 8 66 36 235 100 72 28 192 81 267 119 146
73 185 89 174 72 -3 -6 -1 -14 5 -18 9 -5 10 0 6 15 -5 19 6 28 75 68 44 26
82 52 85 58 9 24 -218 415 -241 415 -4 0 -58 -31 -120 -69 -61 -38 -210 -126
-331 -196 -346 -201 -515 -304 -579 -353 l-59 -44 -71 22 c-39 12 -77 24 -85
27 -47 13 294 270 589 444 69 40 243 146 386 235 317 197 311 194 347 137z
m302 -273 c108 -28 157 -53 217 -113 188 -188 487 -659 622 -982 60 -143 189
-495 250 -682 56 -173 146 -498 146 -527 0 -23 -39 -20 -146 9 -114 31 -210
71 -342 140 -223 119 -245 136 -657 530 -405 387 -569 536 -657 598 l-58 41
97 26 c104 28 261 79 278 90 6 4 39 17 75 30 116 41 350 186 350 217 0 9 -19
50 -42 92 -23 42 -43 90 -44 106 -1 17 -50 121 -108 233 -58 112 -106 206
-106 208 0 9 49 3 125 -16z m529 -3527 c42 -178 211 -613 321 -828 176 -343
411 -704 619 -949 41 -50 74 -92 72 -94 -9 -8 -160 40 -219 69 -86 44 -295
187 -396 273 -109 91 -177 175 -229 278 -80 161 -101 254 -143 623 -16 143
-33 293 -39 333 -12 91 -13 322 -1 322 5 0 12 -12 15 -27z m-2581 -172 l67 -6
30 -60 c17 -33 28 -51 25 -40 -8 26 -3 20 82 -95 94 -129 129 -170 232 -275
l88 -90 22 -105 c12 -58 24 -115 27 -127 6 -20 4 -22 -23 -14 -16 5 -49 17
-73 28 l-45 20 41 21 c22 11 47 28 54 38 14 15 11 16 -30 8 -93 -18 -399 4
-384 28 3 4 0 8 -7 8 -21 0 -117 69 -194 140 -41 39 -80 70 -86 70 -10 0 -3
-14 50 -100 8 -14 33 -49 53 -77 l39 -53 -37 0 c-45 0 -115 47 -93 61 11 7 9
9 -6 9 -20 0 -86 68 -158 164 -66 87 -237 372 -237 394 0 5 42 18 93 27 157
30 329 39 470 26z m1412 -184 l50 -13 16 -65 c9 -35 19 -82 23 -104 6 -38 4
-41 -39 -72 -24 -18 -46 -29 -48 -25 -3 4 -8 36 -12 72 -7 59 -31 160 -50 203
-9 20 -5 20 60 4z m278 -218 c49 -13 83 -67 103 -162 16 -75 15 -155 -1 -89
-4 17 -11 32 -14 32 -4 0 -14 23 -21 50 -11 39 -20 54 -43 65 -38 19 -90 19
-125 1 -46 -24 -142 -133 -169 -193 -32 -68 -43 -205 -25 -301 21 -111 26
-175 12 -167 -9 5 -9 1 1 -16 21 -37 38 -110 26 -106 -19 6 -98 177 -118 255
-23 92 -25 234 -3 317 36 141 132 264 234 302 62 23 89 25 143 12z m786 -124
c29 -146 95 -382 134 -475 42 -103 137 -278 200 -369 109 -157 302 -335 447
-410 72 -38 209 -81 257 -81 13 0 27 9 34 23 6 12 24 42 41 67 l30 45 127
-125 c70 -69 164 -154 210 -190 110 -87 222 -161 232 -154 5 3 9 0 9 -5 0 -13
118 -73 188 -96 61 -20 62 -21 65 -160 l2 -100 -55 -89 c-125 -200 -378 -460
-541 -554 -50 -29 -112 -61 -138 -72 -25 -10 -95 -40 -156 -68 -139 -63 -432
-160 -638 -211 l-159 -39 -66 48 c-83 60 -218 145 -295 185 -31 17 -57 32 -57
35 0 3 40 23 89 43 103 44 123 63 125 114 1 35 -2 38 -61 72 -35 20 -63 39
-63 43 0 3 16 12 35 18 70 23 210 127 325 241 119 117 159 173 179 247 7 25
18 42 27 42 58 0 -170 232 -343 347 l-48 33 62 0 c55 0 73 -6 150 -46 125 -66
240 -144 301 -205 53 -53 74 -60 51 -17 -7 12 -13 33 -14 44 -1 35 -55 104
-127 163 -38 30 -68 58 -68 62 0 7 81 2 170 -12 156 -25 289 -128 332 -258 8
-25 20 -47 26 -49 7 -2 25 10 42 26 79 79 -6 205 -203 302 -120 58 -179 71
-367 77 -134 5 -172 9 -202 24 -62 31 -252 108 -281 113 -15 3 -42 12 -60 21
-17 9 -39 18 -47 20 -8 3 -49 14 -90 25 -41 11 -122 30 -180 41 -58 11 -131
30 -162 42 -51 19 -57 24 -52 44 4 15 2 24 -7 25 -8 0 21 4 63 7 91 8 124 29
200 129 75 99 117 243 89 310 -14 34 -76 72 -118 72 -16 0 -32 3 -36 6 -3 3
23 42 57 87 117 153 213 341 271 532 19 64 35 119 35 122 0 24 11 -18 29 -112z
m-2514 -84 c-21 -3 -55 31 -89 91 -16 28 -9 24 45 -27 53 -50 61 -61 44 -64z
m1709 80 c24 -27 39 -140 31 -246 -6 -90 -31 -212 -45 -229 -5 -4 -17 13 -29
39 -17 38 -22 73 -25 183 -2 76 -7 162 -11 192 -7 52 -6 57 16 67 34 16 44 15
63 -6z m-123 -181 c-5 -19 -13 -60 -16 -90 -8 -65 -55 -205 -65 -193 -4 4 -10
74 -14 154 l-7 146 48 64 47 64 9 -55 c5 -34 4 -69 -2 -90z m-1505 65 l37 -25
-50 0 c-43 0 -53 4 -67 25 -16 25 -16 25 13 25 17 0 47 -11 67 -25z m1394
-260 c0 -89 -4 -135 -9 -125 -17 25 -23 109 -16 202 11 133 25 89 25 -77z
m304 10 c18 -49 -41 -285 -71 -285 -7 0 -13 -8 -14 -17 -3 -64 -16 -103 -35
-103 -12 0 -14 7 -9 33 4 17 12 43 18 57 6 14 12 30 12 35 1 6 5 17 9 26 4 9
8 27 10 40 4 29 15 78 23 99 4 8 5 21 4 29 -1 7 1 11 6 8 4 -3 9 11 10 30 3
59 23 84 37 48z m-129 -137 c19 -66 19 -84 -4 -133 l-18 -40 -8 60 c-4 33 -11
65 -15 70 -10 12 10 95 22 95 4 0 14 -23 23 -52z m-1445 -18 c0 -5 -5 -10 -11
-10 -5 0 -7 5 -4 10 3 6 8 10 11 10 2 0 4 -4 4 -10z m-2729 -131 c64 -71 137
-117 162 -102 7 4 35 8 62 8 48 0 51 -2 78 -43 15 -24 25 -47 22 -53 -4 -5 -2
-8 4 -7 12 4 126 -172 141 -218 9 -26 8 -39 -4 -63 -9 -16 -21 -33 -27 -37 -6
-3 -24 -27 -40 -52 -31 -49 -34 -47 -43 33 -8 63 -61 221 -74 218 -6 -1 -22
13 -37 32 -33 45 -116 106 -176 131 -44 18 -49 23 -49 44 0 6 -5 10 -11 10 -6
0 -9 -7 -5 -15 3 -8 2 -15 -2 -15 -23 1 -46 43 -62 118 -6 26 -13 55 -16 65
-10 33 13 17 77 -54z m4121 4 c12 -42 14 -62 5 -80 -5 -12 -14 -23 -18 -23
-11 0 -49 65 -49 84 0 21 28 76 39 76 4 0 15 -25 23 -57z m568 -3 c28 -19 -26
-47 -103 -55 -38 -3 -76 -9 -85 -12 -10 -4 -13 -2 -8 5 4 7 -4 6 -21 -3 -61
-30 -102 -45 -130 -45 -15 0 -43 -4 -60 -9 -92 -27 0 46 111 88 33 12 80 24
104 27 25 2 48 6 50 9 10 9 127 5 142 -5z m-822 -76 c36 -13 73 -31 82 -39 9
-8 21 -15 27 -15 6 0 16 -7 23 -15 17 -20 -4 -20 -61 1 -60 22 -256 24 -270 3
-22 -34 2 -162 47 -251 13 -26 51 -75 84 -109 54 -55 63 -61 93 -57 17 3 40 8
50 13 15 6 17 1 17 -49 0 -51 -2 -57 -25 -66 -26 -10 -75 5 -75 22 0 5 -4 6
-10 3 -5 -3 -10 -1 -10 4 0 6 -4 10 -9 9 -19 -6 -104 67 -146 126 -60 85 -91
156 -105 244 -13 82 -2 148 29 176 45 41 151 41 259 0z m822 -20 c48 -47 -26
-202 -127 -261 -41 -24 -51 -25 -119 -20 -113 10 -185 49 -183 100 0 17 13 28
57 49 31 15 91 53 132 84 41 32 89 61 105 65 40 10 117 1 135 -17z m-4655 -71
c66 -21 148 -76 190 -127 19 -23 50 -75 69 -116 32 -70 34 -79 27 -135 -5 -33
-9 -53 -10 -45 -1 13 -2 13 -11 0 -8 -12 -10 -9 -10 12 0 15 -9 51 -20 79 -10
29 -16 57 -13 63 3 6 3 8 -2 4 -4 -4 -22 13 -40 38 -18 25 -42 52 -54 60 -11
8 -21 21 -21 27 0 7 -37 30 -81 51 -62 30 -93 40 -130 39 -39 -1 -50 3 -54 18
-8 23 -14 24 -43 3 -24 -17 -29 -7 -9 20 27 37 113 41 212 9z m3489 6 c16 -8
26 -23 31 -46 3 -19 9 -42 12 -50 10 -27 -15 -5 -48 39 -26 36 -37 68 -24 68
2 0 15 -5 29 -11z m280 -9 c75 -11 149 -46 191 -90 56 -59 38 -167 -41 -244
-47 -46 -73 -46 -125 1 -85 77 -139 189 -139 290 0 61 -4 60 114 43z m-3807
-76 c13 -4 21 -10 18 -14 -3 -4 6 -15 20 -24 28 -19 34 -10 8 11 -10 8 -2 6
17 -4 51 -27 133 -114 167 -180 31 -58 53 -139 53 -193 l0 -29 -47 27 c-67 36
-168 141 -241 251 -46 68 -60 97 -52 106 7 9 6 16 -5 25 -8 7 -15 16 -15 21 0
10 44 12 77 3z m4114 -24 c-63 -35 -61 -34 -61 -15 0 19 47 44 85 44 28 1 26
-2 -24 -29z m-4261 -12 c0 -5 14 -14 30 -20 30 -10 66 -59 53 -72 -4 -3 -2 -6
4 -6 17 0 62 -75 53 -89 -4 -7 -11 -12 -16 -11 -18 3 -34 22 -27 33 3 6 1 7
-5 3 -14 -9 -87 88 -106 142 -13 35 -13 40 0 35 8 -3 14 -9 14 -15z m4516
-109 c5 -4 21 -5 34 -2 13 4 21 2 17 -3 -3 -6 8 -8 27 -6 21 2 40 -3 56 -16
46 -37 4 -43 -115 -18 -87 19 -101 26 -92 51 5 11 14 14 34 9 16 -4 33 -10 39
-15z m-62 -101 c14 -18 39 -45 54 -60 15 -16 27 -34 27 -40 0 -7 5 -13 10 -14
23 -2 44 -17 38 -27 -3 -6 -1 -7 5 -3 7 4 12 1 12 -8 0 -14 6 -18 27 -15 3 0
10 -6 15 -15 5 -9 13 -14 18 -11 5 3 14 -4 20 -16 7 -11 14 -18 17 -16 2 3 13
-3 24 -14 11 -11 25 -17 31 -13 7 5 8 3 3 -6 -6 -10 -4 -12 8 -7 11 4 14 2 10
-9 -11 -30 -34 -20 -164 73 -96 69 -142 112 -172 160 -44 70 -31 101 17 41z
m87 12 c9 0 19 -6 22 -13 4 -11 -3 -12 -39 -4 -24 6 -44 15 -44 20 0 5 10 7
23 3 12 -3 29 -6 38 -6z m-3868 -103 c14 -72 14 -78 -2 -71 -21 10 -80 11
-108 1 -21 -8 -22 -7 -12 22 10 28 97 136 104 129 2 -2 10 -38 18 -81z m3553
-22 c-3 -46 -11 -108 -16 -137 -11 -55 -49 -138 -63 -138 -13 0 -55 51 -91
111 -19 31 -42 69 -52 84 -18 28 -18 28 3 16 12 -6 39 -11 61 -11 47 0 93 40
132 113 14 26 27 47 29 47 2 0 1 -38 -3 -85z m175 17 c8 -20 6 -21 -11 -12
-11 6 -20 18 -20 26 0 22 22 12 31 -14z m272 -26 c21 -8 35 -11 32 -6 -8 14
-1 13 122 -11 165 -31 257 -56 387 -106 171 -65 261 -109 241 -117 -35 -13
-155 -6 -216 14 -78 24 -87 20 -17 -8 51 -20 52 -21 19 -21 -34 -1 -105 35
-97 48 3 4 -21 16 -52 25 -31 10 -66 26 -76 35 -16 13 -18 13 -14 1 2 -8 14
-20 26 -26 12 -6 19 -14 14 -18 -4 -4 -2 -6 3 -5 6 2 37 -12 70 -30 33 -17 51
-29 40 -26 -11 4 -45 11 -75 16 -113 21 -357 129 -343 153 4 5 1 6 -7 1 -8 -5
-20 1 -32 16 -11 13 -17 17 -13 9 3 -8 -6 -1 -20 15 -15 17 -24 23 -19 15 7
-13 6 -13 -12 -1 -36 28 -74 65 -74 73 0 5 17 0 38 -11 20 -10 54 -26 75 -35z
m-219 -37 c44 -22 96 -53 115 -69 47 -36 147 -91 241 -131 133 -56 272 -87
405 -90 68 -2 72 -3 170 -68 65 -42 138 -103 208 -173 59 -60 107 -112 107
-116 0 -4 -15 -7 -32 -7 -24 0 -37 7 -49 25 -25 39 -156 176 -202 211 -27 20
-16 6 29 -37 74 -72 154 -172 154 -193 0 -8 -7 -10 -20 -6 -12 4 -20 2 -20 -5
0 -6 -6 -10 -12 -9 -7 1 -21 -1 -30 -5 -12 -5 -53 18 -145 82 -70 49 -173 118
-228 152 l-99 62 55 -64 c107 -122 224 -274 249 -320 l25 -48 -81 -82 c-44
-46 -98 -107 -119 -135 -22 -29 -46 -53 -55 -52 -8 0 -49 15 -90 33 -74 31
-75 32 -76 69 -1 21 -3 39 -5 41 -2 1 -44 24 -94 50 -188 100 -287 198 -361
355 -44 93 -99 257 -113 337 -16 90 -25 234 -15 234 5 0 45 -18 88 -41z m-691
-4 c45 -19 104 -19 137 0 14 8 30 14 37 15 7 0 31 -33 54 -72 90 -155 145
-218 192 -218 14 0 29 -30 122 -255 59 -144 94 -218 95 -203 0 4 -16 55 -35
114 -19 58 -35 114 -35 123 1 9 -29 75 -66 146 l-66 131 25 99 c15 62 25 88
26 69 2 -60 32 -210 67 -334 52 -182 138 -340 252 -463 32 -35 75 -91 96 -126
52 -90 112 -165 195 -244 39 -38 71 -71 71 -74 0 -3 -12 -2 -27 2 -111 27
-312 233 -416 425 -10 18 -20 30 -23 28 -9 -9 44 -118 83 -170 31 -43 33 -49
13 -38 -22 12 -22 11 -16 -16 4 -16 30 -74 57 -130 54 -111 136 -204 181 -204
21 -1 21 -2 5 -11 -25 -15 -75 4 -126 47 -45 39 -111 163 -151 286 l-23 67
-212 104 c-116 58 -221 108 -233 111 -12 4 -22 12 -22 17 0 6 4 8 8 5 8 -5
100 65 112 84 3 5 34 -5 70 -21 56 -26 180 -85 203 -96 4 -2 7 2 7 10 0 14
-195 112 -320 160 -100 39 -394 132 -500 158 -52 13 -98 28 -102 34 -4 5 -8
66 -8 135 0 142 -3 134 100 248 57 65 68 72 101 72 20 0 53 -7 72 -15z m-3090
-25 c35 -28 51 -81 51 -169 -1 -84 -13 -101 -71 -101 -29 0 -32 3 -25 18 16
31 21 106 10 152 -15 62 -26 73 -65 67 -40 -7 -42 5 -5 32 35 26 72 26 105 1z
m3626 -76 c1 -12 8 -24 16 -28 8 -3 15 -15 15 -26 0 -11 6 -20 14 -20 9 0 21
-31 37 -92 12 -51 37 -130 55 -175 18 -46 30 -83 27 -83 -2 0 2 -6 9 -14 7 -8
29 -43 48 -77 19 -34 58 -86 87 -115 59 -59 214 -165 279 -190 46 -18 54 -36
33 -76 -9 -17 -17 -19 -47 -13 -38 7 -172 83 -172 98 0 4 -4 6 -9 3 -14 -9
-169 142 -206 200 -59 91 -106 193 -146 314 -36 112 -70 291 -68 361 l1 34 13
-40 c8 -22 14 -50 14 -61z m-4171 71 c77 -16 243 -83 273 -111 40 -36 2 -37
-108 0 -59 19 -127 38 -150 42 -24 4 -43 10 -43 15 0 5 -17 9 -37 9 -28 0 -34
-3 -23 -10 23 -15 -72 -13 -120 2 -45 14 -50 30 -18 52 29 21 133 21 226 1z
m178 -26 c19 -22 19 -22 -3 -10 -13 6 -23 16 -23 21 0 15 5 12 26 -11z m-68
-90 c99 -33 108 -40 123 -89 16 -51 6 -84 -35 -115 -54 -41 -96 -43 -149 -7
-82 57 -203 211 -181 232 28 26 127 18 242 -21z m390 -24 c4 -67 -13 -117 -37
-113 -23 5 -28 121 -6 154 25 38 40 24 43 -41z m-100 -23 c3 -17 -4 -25 -30
-36 -18 -8 -46 -16 -63 -18 -26 -3 -30 0 -33 25 -3 23 2 30 30 42 48 21 92 16
96 -13z m4541 -21 c9 -6 10 -11 2 -15 -6 -4 -11 -3 -11 3 0 5 -8 12 -17 14
-13 3 -14 5 -3 6 8 0 21 -3 29 -8z m696 -12 c-14 -7 -5 -8 33 -5 57 6 114 -2
107 -14 -2 -3 9 -7 25 -7 34 0 152 -58 223 -109 58 -42 107 -108 107 -143 0
-27 -24 -71 -39 -71 -5 0 -18 22 -29 50 -25 59 -98 141 -167 185 -63 40 -131
63 -218 71 -43 4 -64 10 -55 15 9 6 4 9 -15 9 -16 0 -26 4 -22 10 4 6 -8 10
-29 10 -27 0 -34 -4 -30 -14 4 -11 0 -13 -15 -9 -12 3 -21 9 -21 14 0 5 -17 8
-37 8 l-38 -2 35 -7 35 -7 -45 -3 c-39 -2 -42 -3 -20 -11 26 -9 1 -7 -102 7
-31 4 -39 3 -28 -5 10 -7 -27 -10 -128 -10 -79 -1 -142 3 -142 8 0 6 -18 8
-40 6 -46 -5 -51 1 -15 15 19 7 34 5 60 -7 32 -15 39 -15 104 0 69 17 221 22
221 7 0 -14 35 -17 48 -4 9 10 9 14 -1 17 -7 3 49 5 123 6 92 0 129 -3 115
-10z m-5005 -20 c0 -27 100 -177 160 -240 36 -38 64 -69 62 -69 -1 0 -28 6
-60 14 -31 8 -82 20 -113 26 -56 11 -191 69 -203 88 -3 5 12 16 33 24 48 19
91 75 98 128 3 22 10 40 14 40 5 0 9 -5 9 -11z m4957 -15 c-3 -3 -12 -4 -19
-1 -8 3 -5 6 6 6 11 1 17 -2 13 -5z m-27 -69 c58 -45 180 -171 180 -186 0 -5
-28 14 -62 42 -63 51 -222 150 -271 168 -41 16 -33 21 34 21 56 0 64 -3 119
-45z m-5290 5 c0 -15 -52 -92 -75 -112 -11 -10 -35 -17 -53 -18 -46 0 -40 28
13 57 22 12 54 36 70 52 32 32 45 38 45 21z m105 -69 c13 -39 20 -48 38 -47
20 1 22 -4 21 -46 -1 -42 1 -46 13 -30 8 9 12 11 8 4 -3 -6 1 -19 10 -28 12
-13 13 -19 4 -30 -10 -12 -8 -13 7 -7 17 6 17 5 5 -10 -8 -10 -11 -20 -7 -24
3 -3 6 -1 6 6 0 9 4 9 14 -1 8 -7 12 -16 9 -20 -2 -5 0 -8 5 -8 5 0 22 -19 37
-41 28 -44 140 -168 153 -170 18 -5 61 -43 56 -51 -3 -5 -1 -7 4 -6 5 2 20 -5
33 -14 13 -9 55 -38 93 -63 38 -26 74 -51 80 -56 6 -5 24 -19 39 -30 15 -12
25 -24 22 -27 -14 -14 -89 -3 -113 16 -15 12 -45 34 -67 49 -190 132 -268 206
-354 333 -55 82 -122 236 -136 313 -10 52 0 46 20 -12z m-60 -20 c8 -27 9 -86
1 -99 -3 -6 -17 -55 -31 -109 -50 -198 -26 -396 74 -603 45 -92 61 -120 82
-140 9 -8 19 -29 23 -47 l5 -32 -34 21 c-19 11 -32 25 -28 31 3 5 1 7 -4 4
-11 -7 -63 54 -67 78 -1 8 -6 18 -11 22 -4 4 -5 2 -1 -4 4 -7 5 -13 3 -13 -18
0 -105 197 -110 249 -2 15 -7 33 -12 41 -15 23 -19 270 -6 330 14 67 93 290
103 290 4 0 9 -8 13 -19z m4765 -85 c8 -7 53 -36 100 -66 47 -29 106 -70 132
-92 26 -22 53 -36 59 -32 6 3 44 1 85 -6 56 -10 74 -17 74 -29 0 -17 -54 -103
-98 -155 -73 -89 -309 -276 -348 -276 -17 0 -19 71 -3 103 9 18 6 17 -15 -5
-15 -16 -29 -28 -31 -28 -12 0 80 115 154 192 l84 87 -28 48 c-39 67 -148 205
-209 265 l-51 50 40 -22 c22 -12 47 -28 55 -34z m-4680 -63 c52 -117 124 -220
214 -308 89 -86 116 -108 333 -264 159 -114 225 -181 279 -284 l37 -71 -38
-31 c-73 -62 -165 -104 -243 -111 -65 -6 -74 -5 -117 20 -144 85 -379 408
-460 633 l-25 68 6 -70 c6 -77 36 -230 59 -308 8 -28 13 -52 11 -54 -7 -8 -48
58 -87 142 -61 129 -79 216 -80 373 0 121 15 242 30 242 3 0 7 12 8 26 1 27
22 74 32 74 3 0 22 -35 41 -77z m144 58 c16 -7 31 -10 33 -7 3 2 32 -9 66 -25
34 -16 70 -29 79 -29 26 0 48 -11 42 -21 -3 -5 2 -6 10 -3 9 3 16 1 16 -5 0
-6 17 -11 40 -11 22 0 40 -5 40 -10 0 -6 27 -38 61 -73 33 -34 73 -78 87 -97
15 -19 48 -61 74 -93 28 -36 45 -67 43 -78 -8 -39 299 -222 433 -258 23 -7 42
-16 42 -22 0 -15 -87 -49 -124 -49 -42 0 -130 30 -207 71 -35 19 -106 76 -172
138 -95 90 -105 97 -63 46 27 -33 59 -68 70 -78 31 -28 -3 -8 -49 28 -22 18
-89 65 -150 105 -225 150 -327 250 -400 391 -25 48 -45 89 -45 92 0 7 42 0 74
-12z m3011 -24 c184 -45 285 -76 285 -87 0 -4 -25 -30 -55 -55 -41 -35 -61
-46 -77 -42 -13 3 -75 19 -138 36 -63 17 -127 31 -142 31 -35 0 -36 4 -44 90
-7 68 -6 72 12 67 10 -4 82 -22 159 -40z m-2539 -143 c112 -75 306 -173 499
-250 l129 -52 -124 -63 c-69 -35 -132 -65 -141 -67 -9 -2 -44 13 -77 33 -47
27 -77 56 -124 118 -34 45 -107 136 -163 202 -148 175 -148 178 1 79z m2479
-74 c-4 8 1 6 9 -4 9 -11 16 -16 16 -12 0 4 5 4 10 1 8 -5 7 -12 -2 -23 -10
-12 -10 -14 0 -8 8 5 15 -2 22 -18 5 -14 14 -26 20 -26 14 0 12 -65 -4 -103
-16 -39 -103 -129 -159 -164 -67 -42 -291 -151 -354 -172 -62 -20 -93 -21
-115 -4 -7 6 -25 13 -40 17 l-28 6 21 53 c27 70 39 81 112 107 81 29 247 119
322 175 33 25 70 62 81 83 16 28 27 37 45 35 24 -2 24 -2 3 9 -12 5 -27 21
-33 34 -12 27 -12 28 23 14 22 -8 26 -7 26 7 0 15 2 14 16 -3 8 -10 13 -12 9
-4z m3530 -291 c-9 -68 -17 -136 -18 -151 -1 -14 -5 -24 -9 -21 -5 2 -8 -4 -8
-14 -1 -40 -49 -154 -93 -221 -28 -42 -44 -77 -41 -86 4 -10 1 -16 -8 -16 -8
0 -22 -8 -31 -18 -14 -15 -15 -19 -2 -19 8 0 12 4 9 8 -2 4 0 10 5 13 5 4 12
2 15 -3 8 -12 -34 -42 -47 -34 -6 3 -7 1 -4 -4 13 -20 -216 -158 -430 -260
-152 -72 -185 -83 -244 -83 -59 0 -215 -30 -325 -63 l-81 -24 -26 22 c-33 26
-34 41 -4 49 12 3 32 14 44 26 12 11 25 20 29 20 18 0 64 44 65 63 0 12 3 16
6 9 2 -6 9 -10 13 -7 5 3 7 12 3 20 -3 9 1 15 11 15 10 0 14 -6 10 -17 -4 -14
-1 -13 14 4 11 12 22 19 25 16 4 -3 14 7 23 23 9 16 45 47 79 68 118 74 110
76 -25 7 -140 -72 -406 -181 -439 -181 -11 0 -23 4 -26 10 -3 5 -16 15 -28 22
-41 22 -1 -17 104 -98 54 -43 99 -80 99 -83 0 -7 -100 -51 -116 -51 -6 0 -21
23 -34 50 -46 98 -159 177 -286 201 -80 15 -260 5 -354 -20 -45 -13 -107 -21
-157 -21 l-81 0 -26 44 c-15 26 -53 65 -91 93 -35 26 -61 51 -57 55 4 4 54 27
112 52 58 25 146 66 195 90 50 25 96 46 103 46 15 0 245 -135 357 -210 80 -53
159 -99 132 -77 -21 17 -26 15 233 87 112 31 339 106 510 170 47 17 129 53
184 81 54 27 100 49 103 49 8 0 -81 -74 -180 -149 -53 -41 -97 -76 -97 -78 0
-3 17 8 38 24 21 15 75 55 120 88 192 139 336 261 441 372 145 152 259 304
287 384 17 45 16 -142 -1 -272z m-2105 -23 c47 -20 93 -36 102 -36 21 0 43
-36 28 -45 -6 -3 -13 0 -16 8 -3 8 -17 17 -32 20 -15 3 -36 9 -47 13 -19 6
-19 6 -2 -8 18 -13 18 -15 0 -37 -23 -28 -30 -25 -132 47 l-64 45 24 19 c27
21 26 21 139 -26z m-3385 -26 c-2 -3 26 -21 62 -40 l66 -34 -40 -19 -40 -20
-69 28 c-97 38 -103 46 -57 72 34 19 87 28 78 13z m-1040 -114 c21 -39 62
-108 91 -153 30 -44 54 -83 54 -86 0 -6 -89 -37 -106 -37 -8 0 -24 36 -39 85
-29 93 -75 279 -75 298 1 18 34 -29 75 -107z m2995 27 c13 -38 36 -94 52 -125
l28 -57 -56 -98 c-67 -117 -189 -301 -339 -513 -241 -338 -348 -504 -376 -583
-7 -20 -16 -37 -20 -37 -4 0 -13 17 -19 38 -17 52 -77 159 -94 165 -7 3 -23
-1 -34 -9 -23 -16 -24 -15 -41 39 -15 45 -23 46 -129 7 -46 -16 -85 -30 -87
-30 -19 0 18 250 51 348 13 41 27 108 31 150 3 43 14 93 24 114 11 21 25 61
33 91 16 61 46 115 62 110 6 -2 16 8 22 22 6 14 20 25 30 25 22 0 47 42 39 63
-8 22 23 31 38 11 25 -36 187 8 193 52 2 16 30 32 135 74 149 60 407 188 407
201 0 5 6 9 13 9 7 0 24 -30 37 -67z m-600 38 c0 -10 -8 -25 -17 -32 -15 -11
-16 -11 -5 1 6 8 12 19 12 25 0 5 -7 1 -15 -9 -8 -11 -12 -29 -9 -40 3 -12 1
-32 -4 -45 -8 -22 -10 -22 -51 28 -57 67 -45 84 62 90 20 1 27 -4 27 -18z
m-680 0 c0 -5 3 -16 6 -25 5 -13 -1 -16 -30 -16 -47 0 -53 -17 -27 -69 21 -41
26 -77 15 -118 -5 -19 -9 -21 -28 -12 -50 26 -66 51 -66 102 0 34 7 58 21 79
33 45 109 87 109 59z m2790 -16 c0 -14 -4 -25 -10 -25 -11 0 -14 33 -3 43 11
11 13 8 13 -18z m-2500 5 c0 -7 7 -7 21 0 43 23 77 -47 49 -101 -13 -23 -3
-24 37 -4 22 11 38 13 56 6 30 -12 41 -27 27 -36 -8 -5 -5 -14 7 -27 17 -19
17 -21 -10 -44 -16 -13 -39 -24 -53 -24 -27 0 -30 -16 -9 -44 8 -11 15 -32 15
-48 0 -22 -4 -28 -23 -28 -12 0 -28 -9 -35 -20 -12 -19 -12 -19 -46 1 -19 11
-36 29 -39 39 -7 26 -27 26 -27 1 0 -38 -71 -68 -84 -36 -3 8 -15 15 -26 15
-29 0 -27 51 5 88 25 30 24 42 -4 42 -18 0 -61 39 -61 56 0 6 7 14 15 18 8 3
14 15 12 28 -2 20 3 23 34 26 23 2 40 -2 49 -12 20 -25 26 -19 22 22 -3 27 2
45 18 65 21 27 50 37 50 17z m236 -21 c29 -17 114 -129 114 -148 0 -4 -24 -13
-52 -21 -29 -7 -59 -15 -66 -18 -9 -3 -11 2 -7 21 4 13 2 28 -4 31 -5 4 -8 13
-5 21 4 8 -13 32 -41 60 l-47 45 34 15 c42 18 35 18 74 -6z m-507 -28 c12 -8
12 -13 -3 -35 -9 -14 -20 -26 -24 -26 -8 0 -42 53 -42 64 0 9 53 7 69 -3z
m121 -9 c0 -5 -12 -14 -26 -21 -19 -8 -25 -17 -21 -31 3 -11 1 -20 -4 -20 -5
0 -14 -12 -19 -26 -8 -20 -5 -34 16 -71 14 -25 24 -55 22 -67 -3 -18 -9 -21
-53 -19 -56 2 -79 22 -71 63 17 88 28 124 46 160 19 38 23 40 65 40 25 0 45
-4 45 -8z m-962 -87 c2 -2 -13 -11 -33 -21 -39 -18 -41 -17 -74 37 l-21 37 62
-25 c35 -14 64 -27 66 -28z m5599 -37 c-3 -8 -6 -5 -6 6 -1 11 2 17 5 13 3 -3
4 -12 1 -19z m-5706 -9 c25 -25 79 -137 79 -164 0 -29 -16 -49 -33 -42 -8 3
-35 45 -61 94 -25 48 -54 98 -62 111 -16 22 -16 22 20 22 23 0 43 -7 57 -21z
m6235 -38 c0 -11 -4 -17 -8 -15 -4 3 -8 12 -8 20 0 8 4 14 8 14 4 0 8 -9 8
-19z m-4649 -7 c5 -14 -67 -44 -102 -44 -26 0 -34 23 -13 36 35 22 109 27 115
8z m-2457 -49 c35 -36 58 -43 77 -24 9 9 14 5 19 -17 11 -46 72 -175 99 -210
31 -40 31 -44 1 -44 -53 0 -152 108 -206 225 -52 112 -49 131 10 70z m291 -72
c68 -73 69 -67 -21 -102 -45 -17 -83 -31 -84 -31 -5 0 -56 117 -56 128 0 6 19
16 43 22 23 6 47 13 52 15 23 8 33 3 66 -32z m1636 -15 c45 -27 50 -61 18
-129 -13 -30 -28 -67 -31 -84 -4 -22 -26 -46 -81 -90 -102 -81 -222 -191 -273
-251 -24 -27 -77 -87 -119 -133 -89 -97 -131 -158 -130 -186 0 -19 0 -20 12
-1 64 103 120 174 204 260 105 107 252 243 343 316 66 54 70 58 70 90 0 40 46
130 67 130 14 0 15 2 4 9 -21 14 -6 39 35 58 34 17 36 17 49 -1 18 -24 0 -66
-29 -67 -17 -1 -18 -2 -3 -6 24 -6 22 -42 -7 -105 -15 -34 -26 -82 -30 -133
-3 -44 -17 -129 -31 -190 -15 -60 -35 -163 -46 -229 -21 -130 -23 -136 -45
-136 -10 0 -14 13 -15 48 l-1 47 -17 -52 c-9 -29 -21 -57 -26 -62 -6 -4 -47
-21 -93 -36 -78 -27 -87 -28 -148 -18 -81 14 -157 51 -161 78 -3 22 39 125 69
168 26 37 14 34 -23 -5 -40 -43 -69 -110 -69 -159 0 -36 3 -40 50 -64 28 -14
75 -31 106 -38 l55 -13 -128 -46 c-70 -26 -257 -94 -415 -152 -269 -99 -328
-117 -328 -98 0 4 34 52 76 107 193 256 236 326 423 688 56 108 110 211 119
227 12 22 45 46 112 81 52 27 147 85 210 129 107 73 118 78 155 72 22 -3 54
-14 72 -24z m5040 -43 c0 -8 -4 -12 -9 -9 -5 3 -6 10 -3 15 9 13 12 11 12 -6z
m-1572 -305 c-3 -5 -12 -10 -18 -10 -7 0 -6 4 3 10 19 12 23 12 15 0z m-110
-10 c-3 -5 -14 -10 -23 -9 -14 0 -13 2 3 9 27 11 27 11 20 0z m-957 -55 c-30
-21 -34 -22 -45 -7 -7 9 -13 19 -13 23 0 10 30 15 63 11 l28 -4 -33 -23z m424
-131 c28 -5 38 -12 40 -28 2 -11 9 -21 15 -21 7 0 20 -10 28 -22 12 -17 25
-22 47 -20 23 1 35 -5 50 -25 11 -14 17 -31 14 -37 -12 -19 -209 -13 -472 15
-53 5 -63 10 -73 31 -7 14 -10 27 -9 28 13 12 127 55 170 64 102 21 136 24
190 15z m-32 -182 l185 -7 -55 -36 c-30 -20 -104 -76 -164 -124 -103 -81 -111
-86 -123 -69 -14 19 -133 249 -133 257 0 2 24 0 53 -5 28 -5 135 -12 237 -16z
m-2601 -178 c23 -60 21 -74 -10 -74 -14 0 -25 13 -39 44 l-18 44 -139 -53
c-229 -88 -213 -79 -200 -120 16 -53 0 -63 -58 -35 -25 12 -56 22 -68 23 -12
0 -70 -17 -129 -37 l-107 -38 16 -25 c16 -24 16 -26 -6 -44 -13 -11 -31 -19
-41 -19 -23 0 -44 26 -36 45 9 25 55 39 -564 -182 -273 -97 -810 -298 -1092
-407 -240 -94 -278 -105 -278 -87 0 10 -8 7 195 81 88 32 250 92 360 133 215
80 568 211 835 309 91 33 280 103 420 155 140 52 309 115 375 139 66 25 215
80 330 123 116 43 215 79 222 80 6 1 21 -24 32 -55z m4094 41 c-3 -9 -8 -14
-10 -11 -3 3 -2 9 2 15 9 16 15 13 8 -4z m-3912 -100 c21 -38 62 -128 90 -200
128 -323 277 -555 492 -769 65 -64 110 -118 128 -154 40 -80 32 -85 -79 -52
-200 62 -237 85 -291 187 -50 94 -71 113 -122 113 -51 0 -140 -34 -169 -65
-13 -14 -29 -25 -35 -25 -17 0 -39 52 -74 175 -17 61 -46 153 -65 206 -51 141
-69 252 -64 382 5 115 18 150 66 172 12 5 22 17 22 26 0 9 5 30 11 48 18 51
44 38 90 -44z m560 -204 c-21 -19 -38 -27 -51 -24 -30 8 -24 19 18 36 57 24
67 20 33 -12z m120 14 c33 -18 69 -69 69 -100 0 -18 -1 -18 -16 3 -9 13 -26
22 -40 22 -15 0 -23 4 -19 11 4 5 1 24 -5 40 -10 22 -17 28 -31 24 -11 -4 -19
-2 -19 4 0 16 26 14 61 -4z m-18 -34 c8 -16 6 -26 -9 -43 -19 -21 -19 -21 6
-15 40 8 65 -6 66 -39 1 -34 -10 -44 -48 -44 -25 0 -26 -2 -21 -35 5 -30 3
-35 -14 -35 -10 0 -25 -6 -32 -12 -10 -11 -18 -7 -40 20 -25 29 -30 31 -41 17
-16 -19 -34 -19 -65 1 -32 21 -32 39 1 61 l26 17 -26 19 c-28 20 -35 47 -11
47 8 0 14 6 13 12 -4 20 42 21 63 2 18 -16 19 -16 19 1 0 53 92 74 113 26z
m-2708 2 c-25 -6 -35 -21 -35 -50 0 -17 -6 -23 -22 -24 -22 -1 -22 -1 2 -9 42
-14 54 -12 40 4 -18 23 -8 61 18 64 12 2 22 8 22 13 0 13 26 11 68 -6 29 -13
34 -18 22 -25 -13 -8 -12 -10 2 -10 10 0 23 -10 29 -22 10 -18 8 -24 -10 -39
l-22 -18 22 -22 21 -21 -26 -26 -25 -26 -26 24 c-19 17 -25 20 -25 8 0 -26
-32 -47 -63 -41 -25 5 -28 9 -24 32 5 23 1 29 -24 38 -19 7 -29 18 -29 32 0
11 -4 23 -10 26 -27 17 54 106 94 104 20 -1 20 -2 1 -6z m2486 -129 c-24 -30
-36 -17 -27 31 l7 34 20 -20 c20 -20 20 -20 0 -45z m-2311 4 c0 -30 -1 -31
-17 -16 -13 14 -14 20 -3 32 18 22 20 20 20 -16z m-569 -34 c35 -51 112 -221
107 -236 -2 -6 -31 -21 -63 -35 -76 -31 -431 -163 -439 -163 -3 0 -15 9 -25
19 -19 19 -18 20 48 93 37 40 101 118 141 173 162 220 176 229 231 149z m2234
6 c0 -19 -7 -26 -30 -31 -16 -4 -127 -37 -245 -73 -231 -72 -278 -86 -1110
-341 -300 -92 -601 -184 -670 -205 -573 -177 -620 -191 -620 -180 0 16 1145
390 1635 535 427 126 834 253 930 289 50 19 95 33 100 32 6 -2 10 -13 10 -26z
m-1396 16 c-8 -8 -142 -56 -146 -52 -5 5 119 53 141 55 5 1 7 -1 5 -3z m2345
-8 c-38 -66 -64 -85 -64 -45 0 15 11 28 33 39 40 21 40 21 31 6z m-2847 -45
c9 -16 26 -36 37 -45 12 -10 18 -18 14 -18 -11 0 -88 71 -88 81 0 18 20 8 37
-18z m2553 -7 c0 -8 14 -19 31 -25 39 -13 42 -14 34 -1 -11 17 29 10 53 -9 12
-11 22 -21 22 -24 0 -8 -63 -6 -89 4 -44 17 -90 69 -61 69 6 0 10 -6 10 -14z
m-2355 -26 c-20 -22 -91 -47 -102 -37 -3 4 2 16 12 27 12 13 22 17 34 11 19
-10 61 4 61 20 0 7 3 9 7 6 3 -4 -2 -16 -12 -27z m1722 -7 c3 -7 -8 -15 -24
-18 -104 -23 -207 -61 -241 -90 -66 -57 -219 -114 -347 -130 -64 -8 -72 9 -10
21 20 3 37 10 40 14 11 17 -14 19 -66 5 -30 -7 -75 -19 -101 -26 -27 -6 -48
-15 -48 -18 0 -4 -12 -8 -27 -9 -16 -1 -58 -9 -96 -18 -123 -30 -79 -8 81 40
86 26 229 70 317 98 88 27 196 60 240 73 44 13 116 35 160 49 84 27 116 29
122 9z m823 -13 c-8 -5 -19 -10 -25 -10 -5 0 -3 5 5 10 8 5 20 10 25 10 6 0 3
-5 -5 -10z m-1098 -250 c-6 -63 -95 -244 -116 -237 -26 8 -14 109 26 210 20
52 95 74 90 27z m367 -40 c0 -23 -15 7 -22 45 l-6 30 14 -30 c8 -16 14 -37 14
-45z m2977 18 c-6 10 -2 10 18 0 14 -6 26 -15 26 -20 0 -4 6 -8 13 -8 8 0 22
-9 32 -20 10 -12 25 -18 32 -16 7 3 13 1 13 -4 0 -6 3 -9 8 -9 19 3 33 -3 53
-23 12 -13 19 -16 15 -8 -4 8 0 6 9 -5 9 -11 18 -19 20 -17 13 6 25 1 19 -10
-5 -7 -3 -8 5 -3 7 4 22 -1 34 -12 12 -10 31 -25 41 -33 18 -13 19 -13 12 0
-4 8 0 6 8 -4 9 -11 16 -17 16 -13 0 4 9 3 20 -3 11 -6 20 -18 20 -28 0 -13 2
-14 9 -4 6 10 10 8 15 -10 4 -14 9 -19 13 -12 6 8 13 6 25 -5 15 -15 11 -16
-48 -15 -48 1 -64 -2 -60 -11 3 -8 -4 -12 -19 -12 -16 0 -22 4 -18 13 3 8 0
14 -6 14 -19 0 -12 17 9 23 21 5 28 27 9 27 -5 0 -7 5 -4 10 3 6 -3 10 -15 10
-12 0 -19 4 -15 9 3 5 1 13 -5 16 -6 4 -9 1 -8 -5 2 -7 -5 -14 -15 -15 -9 -2
-15 1 -11 6 3 5 -5 9 -17 9 -12 0 -19 3 -16 7 4 3 -7 15 -24 25 -16 10 -27 23
-24 28 3 6 -1 7 -10 3 -12 -4 -13 -8 -5 -13 6 -4 12 -11 13 -16 1 -5 5 -8 9
-7 11 4 39 -42 41 -65 0 -11 23 -47 49 -79 56 -68 63 -88 13 -35 -20 20 -84
85 -142 144 -103 104 -107 108 -88 124 11 8 14 13 7 9 -7 -4 -19 -1 -27 5 -8
6 -19 9 -25 5 -13 -8 -71 55 -63 68 3 4 14 0 26 -10 11 -10 17 -12 13 -5z
m-2896 -278 c5 -25 16 -62 24 -82 16 -38 5 -54 -13 -20 -12 22 -91 312 -91
332 1 23 71 -180 80 -230z m-1187 160 c14 -48 23 -59 64 -85 119 -74 283 -208
270 -221 -4 -4 -22 6 -40 23 -41 39 -138 112 -201 152 -68 43 -93 40 -157 -14
-30 -25 -60 -44 -68 -43 -8 2 -20 21 -28 43 -7 22 -17 43 -21 47 -20 20 -264
-65 -358 -124 -47 -30 -87 -42 -81 -25 7 22 198 114 316 153 94 31 126 47 171
84 74 62 103 81 110 72 4 -4 14 -32 23 -62z m867 -20 c0 -13 -12 -19 -26 -13
-8 3 -12 8 -9 12 5 10 35 10 35 1z m-52 -36 c-13 -6 -33 -15 -45 -18 -35 -11
-28 14 7 27 17 6 30 15 30 20 0 5 7 4 16 -4 14 -11 13 -14 -8 -25z m-998 -86
c0 -3 -32 -16 -72 -28 -39 -12 -111 -39 -159 -61 -82 -37 -148 -51 -134 -29
12 19 145 80 248 115 97 33 116 33 117 3z m290 -27 c59 -43 170 -143 170 -152
0 -24 -44 -3 -111 52 -41 33 -100 74 -131 90 -61 31 -69 42 -41 58 19 10 54
-4 113 -48z m4551 -41 c10 -6 19 -16 19 -23 0 -9 -2 -9 -8 0 -4 7 -19 16 -32
22 -14 5 -19 10 -12 10 7 1 22 -4 33 -9z m89 -75 c0 4 7 2 15 -5 8 -7 15 -18
15 -24 0 -6 -5 -3 -11 7 -6 9 -14 15 -20 12 -11 -8 -39 19 -39 37 1 7 9 3 20
-11 11 -13 20 -20 20 -16z m-251 -45 c12 -17 18 -30 13 -30 -10 0 -62 53 -62
63 0 14 28 -5 49 -33z m-116 -37 c-7 -2 -21 -2 -30 0 -10 3 -4 5 12 5 17 0 24
-2 18 -5z m204 1 c-3 -3 -12 -4 -19 -1 -8 3 -5 6 6 6 11 1 17 -2 13 -5z m101
-1 c-16 -2 -40 -2 -55 0 -16 2 -3 4 27 4 30 0 43 -2 28 -4z m65 0 c-7 -2 -19
-2 -25 0 -7 3 -2 5 12 5 14 0 19 -2 13 -5z"/>
<path d="M5667 9833 c-3 -5 -13 -46 -22 -93 -33 -166 -84 -298 -157 -410 l-29
-45 31 35 c43 49 127 225 146 307 18 80 42 213 38 213 -1 0 -5 -3 -7 -7z"/>
<path d="M5335 9163 c-62 -59 -65 -62 -22 -33 38 27 109 101 95 100 -2 0 -34
-30 -73 -67z"/>
<path d="M5220 9080 c-19 -11 -31 -19 -27 -20 11 0 67 29 67 35 0 7 -1 7 -40
-15z"/>
<path d="M4259 8803 c-13 -16 -12 -17 4 -4 9 7 17 15 17 17 0 8 -8 3 -21 -13z"/>
<path d="M6470 9526 c-19 -13 -72 -47 -117 -76 -91 -58 -110 -76 -35 -34 149
85 202 118 202 125 0 14 -12 10 -50 -15z"/>
<path d="M4946 5415 c4 -11 55 -114 112 -230 57 -115 109 -221 114 -235 6 -14
12 -20 15 -13 4 10 -82 187 -201 417 -36 70 -53 96 -40 61z"/>
<path d="M4683 4943 c9 -2 23 -2 30 0 6 3 -1 5 -18 5 -16 0 -22 -2 -12 -5z"/>
<path d="M6181 4475 c1 -19 18 -51 18 -35 0 8 -4 22 -9 30 -5 8 -9 11 -9 5z"/>
<path d="M2213 3925 c0 -8 4 -12 9 -9 4 3 8 9 8 15 0 5 -4 9 -8 9 -5 0 -9 -7
-9 -15z"/>
<path d="M6860 3730 c8 -5 20 -10 25 -10 6 0 3 5 -5 10 -8 5 -19 10 -25 10 -5
0 -3 -5 5 -10z"/>
<path d="M6910 3710 c8 -5 20 -10 25 -10 6 0 3 5 -5 10 -8 5 -19 10 -25 10 -5
0 -3 -5 5 -10z"/>
<path d="M7044 3646 c11 -9 24 -16 30 -16 12 0 7 5 -24 19 -24 11 -24 11 -6
-3z"/>
<path d="M6411 3554 c0 -11 3 -14 6 -6 3 7 2 16 -1 19 -3 4 -6 -2 -5 -13z"/>
<path d="M2751 3026 c12 -20 25 -39 30 -42 5 -3 0 11 -12 30 -12 20 -25 39
-30 42 -5 3 0 -11 12 -30z"/>
<path d="M2552 3085 c0 -16 2 -22 5 -12 2 9 2 23 0 30 -3 6 -5 -1 -5 -18z"/>
<path d="M2562 3015 c0 -16 2 -22 5 -12 2 9 2 23 0 30 -3 6 -5 -1 -5 -18z"/>
<path d="M2572 2965 c0 -11 4 -31 8 -45 6 -20 8 -21 8 -5 0 11 -4 31 -8 45 -6
20 -8 21 -8 5z"/>
<path d="M2591 2874 c0 -11 3 -14 6 -6 3 7 2 16 -1 19 -3 4 -6 -2 -5 -13z"/>
<path d="M2601 2834 c0 -11 3 -14 6 -6 3 7 2 16 -1 19 -3 4 -6 -2 -5 -13z"/>
<path d="M2810 3176 c0 -2 8 -10 18 -17 15 -13 16 -12 3 4 -13 16 -21 21 -21
13z"/>
<path d="M2856 3137 c6 -16 64 -61 64 -50 0 9 -37 45 -57 57 -8 4 -11 2 -7 -7z"/>
<path d="M3174 2908 c18 -25 166 -148 179 -148 13 0 -37 59 -50 59 -7 1 -12 6
-10 12 1 6 -7 13 -17 14 -10 2 -38 22 -60 44 -45 45 -66 54 -42 19z"/>
<path d="M3135 2850 c33 -33 62 -60 64 -60 3 0 -21 27 -54 60 -33 33 -62 60
-64 60 -3 0 21 -27 54 -60z"/>
<path d="M5710 2921 c0 -5 5 -13 10 -16 6 -3 10 -15 10 -26 0 -10 5 -19 11
-19 6 0 9 -7 5 -15 -3 -8 0 -15 6 -15 17 0 1 61 -22 82 -11 10 -20 14 -20 9z"/>
<path d="M5180 2490 c-19 -11 -28 -19 -20 -19 8 0 31 8 50 19 19 11 28 19 20
19 -8 0 -31 -8 -50 -19z"/>
<path d="M5071 2514 c0 -11 3 -14 6 -6 3 7 2 16 -1 19 -3 4 -6 -2 -5 -13z"/>
<path d="M4614 1906 c-3 -21 -4 -39 -1 -42 3 -4 9 10 13 30 3 21 4 39 1 42 -3
4 -9 -10 -13 -30z"/>
<path d="M4194 1405 c-9 -35 11 -55 55 -55 20 0 63 -7 94 -15 32 -8 66 -15 75
-14 28 2 -120 48 -155 48 -49 1 -61 9 -55 37 6 32 -6 31 -14 -1z"/>
<path d="M4002 1368 c-32 -42 -43 -70 -19 -50 13 11 61 92 55 92 -2 0 -18 -19
-36 -42z"/>
<path d="M4170 1383 c0 -6 -16 -14 -35 -17 -19 -4 -37 -12 -41 -18 -5 -8 0 -9
17 -5 13 4 31 7 40 7 17 0 34 28 24 38 -3 3 -5 1 -5 -5z"/>
<path d="M4292 1161 c-10 -6 -4 -14 21 -29 l35 -20 -10 29 c-10 30 -23 35 -46
20z"/>
<path d="M2944 1004 c9 -8 16 -25 16 -36 0 -17 2 -18 15 -8 14 12 13 16 -6 37
-13 12 -27 23 -31 23 -5 0 -2 -7 6 -16z"/>
<path d="M7835 490 c-3 -5 1 -10 10 -10 9 0 13 5 10 10 -3 6 -8 10 -10 10 -2
0 -7 -4 -10 -10z"/>
<path d="M7966 393 c-6 -14 -5 -15 5 -6 7 7 10 15 7 18 -3 3 -9 -2 -12 -12z"/>
<path d="M8032 293 c2 -9 8 -18 15 -20 7 -3 9 3 6 16 -6 25 -26 28 -21 4z"/>
<path d="M8193 267 c4 -10 3 -16 -2 -12 -5 3 -12 1 -15 -4 -7 -11 36 -23 45
-13 4 4 -2 16 -14 27 -18 18 -19 18 -14 2z"/>
<path d="M3981 9949 c-76 -15 -64 -24 32 -24 91 0 94 -1 162 -42 l70 -42 25
23 c58 55 178 93 240 76 l41 -11 -55 -61 c-74 -81 -90 -130 -81 -246 8 -98 53
-269 89 -340 31 -62 86 -130 86 -108 0 35 68 40 115 10 19 -13 20 -11 20 26 0
63 62 127 86 88 7 -11 12 -11 30 0 18 11 24 11 40 -4 22 -20 25 -7 5 21 -13
18 -17 18 -41 5 -23 -12 -27 -12 -35 0 -16 25 -62 -8 -91 -66 -23 -46 -28 -50
-49 -42 -14 5 -36 5 -54 -2 -28 -10 -33 -8 -53 17 -65 81 -126 281 -127 418
-1 82 2 94 27 138 16 27 47 66 68 87 49 47 49 65 3 80 -73 24 -213 -8 -271
-62 -22 -20 -22 -20 -50 0 -82 57 -155 77 -232 61z"/>
<path d="M4255 9734 c5 -73 34 -218 42 -211 5 6 -25 211 -38 252 -6 22 -7 11
-4 -41z"/>
<path d="M4301 9490 c0 -8 7 -31 14 -50 l14 -35 -6 40 c-5 39 -24 75 -22 45z"/>
<path d="M2654 7821 c-55 -39 -174 -167 -274 -293 -322 -403 -562 -1027 -670
-1738 -67 -445 -84 -651 -77 -960 8 -345 35 -507 109 -638 43 -76 45 -58 3 30
-103 216 -124 695 -55 1243 41 325 116 698 196 977 155 542 381 955 699 1276
120 121 145 159 69 103z"/>
<path d="M2654 7698 c-121 -127 -215 -250 -326 -428 -88 -140 -142 -240 -134
-247 3 -4 6 -2 6 4 0 28 283 468 330 513 3 3 23 28 45 55 22 28 62 74 89 103
27 28 47 52 45 52 -3 0 -27 -24 -55 -52z"/>
<path d="M4916 7721 c-3 -5 3 -11 15 -14 16 -4 18 -3 8 9 -13 16 -16 17 -23 5z"/>
<path d="M5082 7560 c7 -11 17 -20 22 -20 5 0 1 9 -9 20 -10 11 -20 20 -22 20
-2 0 2 -9 9 -20z"/>
<path d="M5120 7512 c0 -5 14 -21 30 -37 34 -33 40 -21 9 19 -20 25 -39 34
-39 18z"/>
<path d="M2840 7449 c-7 -11 -10 -23 -7 -25 2 -2 9 7 15 21 14 30 7 33 -8 4z"/>
<path d="M5330 7285 c0 -3 16 -27 35 -52 41 -53 46 -50 10 6 -23 37 -45 59
-45 46z"/>
<path d="M7146 6488 c-12 -158 -47 -378 -82 -516 -9 -35 -14 -65 -12 -68 10
-9 48 135 73 276 24 132 45 400 33 400 -3 0 -9 -42 -12 -92z"/>
<path d="M5471 6533 c7 -12 15 -20 18 -17 3 2 -3 12 -13 22 -17 16 -18 16 -5
-5z"/>
<path d="M8010 6492 c0 -12 19 -26 26 -19 2 2 -2 10 -11 17 -9 8 -15 8 -15 2z"/>
<path d="M5551 6403 c161 -268 367 -531 566 -723 87 -83 159 -146 161 -140 2
6 -8 25 -24 41 -15 16 -29 35 -30 43 -1 7 -9 29 -17 47 -9 19 -25 57 -36 84
-22 56 -51 114 -51 102 0 -5 14 -47 30 -95 17 -47 29 -93 28 -101 -5 -25 -249
230 -339 354 -44 61 -116 160 -161 220 -44 61 -93 131 -110 158 -35 55 -50 64
-17 10z"/>
<path d="M1941 6304 c0 -11 3 -14 6 -6 3 7 2 16 -1 19 -3 4 -6 -2 -5 -13z"/>
<path d="M5940 6280 c0 -5 5 -10 11 -10 5 0 8 -3 6 -7 -2 -5 6 -30 19 -58 13
-29 21 -39 19 -25 -2 14 -4 30 -4 37 -1 6 -7 18 -14 25 -14 13 -17 21 -17 38
0 6 -4 10 -10 10 -5 0 -10 -4 -10 -10z"/>
<path d="M6011 6120 c6 -16 15 -30 19 -30 5 0 4 14 -1 30 -6 17 -15 30 -19 30
-5 0 -4 -13 1 -30z"/>
<path d="M8330 6096 c0 -1 23 -17 50 -34 36 -22 56 -43 66 -69 15 -36 104
-237 166 -373 109 -239 309 -607 355 -655 36 -37 228 -151 463 -275 96 -51
193 -103 215 -115 22 -13 69 -35 105 -50 36 -15 74 -35 85 -46 19 -19 19 -19
-15 -9 -19 6 -132 31 -250 56 -206 43 -684 157 -800 190 -92 26 -132 35 -137
30 -3 -3 15 -10 38 -16 24 -6 78 -22 120 -35 41 -13 145 -40 230 -60 84 -20
188 -45 229 -56 41 -11 149 -35 240 -53 253 -52 370 -86 497 -141 28 -13 54
-21 57 -17 18 17 -7 36 -127 95 l-134 65 -60 125 c-79 163 -125 240 -224 378
-131 182 -307 386 -528 612 l-206 209 140 -72 c253 -130 442 -266 668 -480
182 -172 305 -336 414 -548 46 -90 63 -116 63 -96 0 54 -137 285 -259 435 -73
91 -298 315 -405 404 -141 116 -382 269 -508 321 -43 18 -100 46 -126 62 -52
32 -422 224 -422 218z m267 -148 c116 -63 235 -172 478 -443 251 -280 386
-453 502 -643 74 -123 158 -290 150 -299 -4 -3 -37 12 -74 34 -37 22 -122 68
-188 103 -66 34 -200 108 -297 162 l-177 100 -55 92 c-103 172 -157 271 -246
451 -84 170 -210 461 -210 484 0 18 15 13 117 -41z"/>
<path d="M6036 6067 c3 -10 9 -15 12 -12 3 3 0 11 -7 18 -10 9 -11 8 -5 -6z"/>
<path d="M1897 6006 c-4 -27 -6 -65 -6 -85 1 -20 6 -2 10 39 10 84 6 122 -4
46z"/>
<path d="M4012 6025 c0 -5 6 -26 13 -45 7 -19 14 -28 14 -20 0 8 -6 29 -14 45
-7 17 -13 26 -13 20z"/>
<path d="M6060 6003 c0 -4 5 -15 10 -23 8 -13 10 -13 10 2 0 9 -4 20 -10 23
-5 3 -10 3 -10 -2z"/>
<path d="M7031 5834 c0 -11 3 -14 6 -6 3 7 2 16 -1 19 -3 4 -6 -2 -5 -13z"/>
<path d="M1883 5770 c0 -41 2 -58 4 -37 2 20 2 54 0 75 -2 20 -4 3 -4 -38z"/>
<path d="M2871 5648 c-1 -15 5 -57 13 -95 7 -37 17 -91 20 -118 l6 -51 -142 1
c-175 0 -256 -9 -314 -35 -24 -11 -44 -23 -44 -26 0 -3 4 -3 8 0 5 3 19 7 33
10 13 2 37 7 52 11 l29 8 -9 -214 c-4 -118 -7 -268 -6 -335 l2 -121 -52 -16
c-29 -9 -83 -16 -120 -15 -37 0 -70 -2 -73 -5 -9 -9 89 -37 149 -44 63 -7 70
-17 32 -53 -21 -20 -27 -21 -41 -9 -16 13 -17 12 -12 -8 5 -18 0 -24 -30 -34
-41 -13 -33 -20 44 -38 49 -12 101 -51 86 -66 -4 -4 -2 -6 3 -5 25 5 38 -5
106 -82 40 -46 76 -84 81 -86 4 -2 -10 34 -32 80 -22 46 -49 119 -60 162 -18
72 -19 82 -5 103 12 18 13 24 3 27 -7 3 -20 7 -28 9 -8 3 6 6 32 6 26 1 59 6
75 12 15 6 52 13 82 15 l53 5 -7 -49 c-15 -110 40 -315 116 -432 21 -33 42
-60 47 -60 16 0 22 13 12 25 -27 32 49 175 86 161 11 -4 14 5 14 35 0 29 7 47
25 65 24 24 28 25 48 11 30 -19 67 -86 67 -120 0 -17 4 -26 10 -22 6 4 26 -10
45 -30 26 -27 35 -45 35 -70 0 -19 5 -37 12 -41 19 -12 0 151 -28 235 -55 164
-125 258 -249 336 -115 72 -159 88 -265 94 l-95 6 -33 82 c-53 134 -127 471
-108 491 4 4 86 7 181 7 142 0 177 -3 188 -15 8 -8 33 -94 56 -190 23 -96 57
-214 75 -262 18 -49 30 -88 25 -88 -4 0 2 -11 14 -25 12 -13 23 -20 25 -15 2
6 12 6 24 -1 34 -18 31 -2 -5 20 -30 18 -38 33 -70 133 -42 129 -128 483 -127
523 0 6 16 -27 34 -72 118 -287 353 -664 444 -712 18 -9 6 8 -37 55 -92 102
-192 257 -286 444 -98 196 -125 259 -176 405 -22 65 -38 99 -38 83z m56 -180
c-3 -8 -6 -5 -6 6 -1 11 2 17 5 13 3 -3 4 -12 1 -19z m-346 -433 c10 -44 32
-117 49 -163 35 -97 35 -95 13 -88 -10 3 -37 10 -60 16 l-43 11 0 108 c0 113
11 250 18 216 2 -11 12 -56 23 -100z m17 -318 c-34 -28 -53 -18 -56 31 l-3 43
40 -28 40 -28 -21 -18z m672 -447 c6 -11 9 -20 7 -20 -2 0 -12 9 -22 20 -10
11 -13 20 -7 20 6 0 16 -9 22 -20z"/>
<path d="M6342 5488 c5 -15 155 -94 163 -86 6 5 -147 98 -160 98 -4 0 -5 -6
-3 -12z"/>
<path d="M5470 5437 c0 -4 23 -64 51 -134 64 -161 132 -293 166 -324 25 -23
24 -20 -9 41 -41 73 -124 250 -110 235 4 -5 27 -36 51 -67 47 -63 134 -148
152 -148 6 0 -13 27 -43 61 -82 94 -146 177 -200 259 -53 80 -58 87 -58 77z"/>
<path d="M6362 5368 c5 -15 139 -39 152 -28 5 5 -4 12 -20 15 -16 3 -48 10
-71 16 -55 12 -65 11 -61 -3z"/>
<path d="M5921 5298 c-1 -9 6 -23 14 -32 9 -8 16 -18 15 -21 0 -3 3 -4 8 -2
10 3 4 20 -12 32 -7 6 -15 17 -19 25 -4 12 -6 12 -6 -2z"/>
<path d="M2471 5214 c0 -11 3 -14 6 -6 3 7 2 16 -1 19 -3 4 -6 -2 -5 -13z"/>
<path d="M5958 5225 c-3 -3 8 -42 23 -88 15 -45 30 -95 34 -110 3 -16 10 -25
16 -21 6 3 8 17 5 30 -5 18 -3 22 9 18 23 -9 18 10 -25 96 -37 74 -49 88 -62
75z"/>
<path d="M7166 5137 c-16 -29 -42 -71 -59 -95 -16 -24 -27 -46 -24 -49 3 -3
16 12 30 34 44 69 89 154 85 158 -2 2 -17 -19 -32 -48z"/>
<path d="M8650 5181 c0 -5 15 -20 33 -32 l32 -22 -29 31 c-32 34 -36 37 -36
23z"/>
<path d="M7970 5103 c65 -224 211 -595 325 -828 53 -107 124 -231 194 -335
102 -153 201 -283 201 -263 0 4 8 -5 19 -22 19 -31 90 -102 76 -75 -9 16 -75
96 -140 171 -55 63 -140 188 -132 195 3 3 18 -3 34 -14 195 -133 469 -265 647
-312 39 -11 112 -31 161 -45 192 -55 397 -85 577 -85 98 0 118 3 118 15 0 12
-14 15 -64 15 l-65 0 -68 143 c-129 265 -311 581 -410 709 -25 33 -43 62 -40
65 9 8 179 -92 270 -160 148 -109 257 -232 336 -377 33 -62 41 -70 41 -47 0
40 -39 110 -119 214 -117 152 -275 274 -478 370 -62 29 -118 53 -124 53 -5 0
0 -10 11 -22 53 -57 217 -314 293 -460 18 -35 53 -97 77 -138 39 -67 148 -289
163 -332 8 -22 -5 -23 -173 -4 -126 15 -437 79 -450 93 -4 4 -24 59 -45 121
-50 153 -119 284 -254 487 -136 203 -158 233 -289 394 -56 69 -99 127 -97 131
2 4 -22 17 -53 30 -150 60 -394 209 -485 295 -56 52 -68 56 -57 18z m118 -100
c90 -74 212 -149 337 -210 78 -37 124 -65 140 -87 76 -99 363 -489 420 -570
72 -104 136 -233 184 -369 40 -116 40 -118 -6 -106 -50 13 -168 53 -218 74
-176 74 -413 220 -481 296 -58 66 -182 300 -261 493 -39 94 -183 505 -183 521
0 11 12 3 68 -42z"/>
<path d="M3460 5114 c0 -6 7 -19 16 -30 14 -18 14 -18 3 6 -14 31 -19 36 -19
24z"/>
<path d="M3510 5025 c0 -5 5 -17 10 -25 5 -8 10 -10 10 -5 0 6 -5 17 -10 25
-5 8 -10 11 -10 5z"/>
<path d="M3501 4987 c-2 -14 89 -236 111 -272 39 -67 27 -29 -31 101 -31 71
-63 140 -69 154 -6 14 -11 21 -11 17z"/>
<path d="M7065 4972 c-19 -14 -48 -52 -39 -51 5 0 19 13 32 30 24 29 25 35 7
21z"/>
<path d="M6997 4892 c-10 -10 -17 -22 -17 -27 0 -4 9 2 20 15 11 13 20 25 20
27 0 7 -8 2 -23 -15z"/>
<path d="M6944 4828 l-19 -23 23 19 c12 11 22 21 22 23 0 8 -8 2 -26 -19z"/>
<path d="M2975 4820 c17 -4 41 -8 55 -8 22 0 22 1 -5 8 -16 4 -41 8 -55 8 -22
0 -22 -1 5 -8z"/>
<path d="M3634 4793 c9 -17 21 -35 27 -39 13 -8 -1 21 -26 51 -15 19 -15 18
-1 -12z"/>
<path d="M8588 4753 c7 -3 16 -2 19 1 4 3 -2 6 -13 5 -11 0 -14 -3 -6 -6z"/>
<path d="M8995 4619 c4 -5 12 -9 19 -9 7 0 25 -12 40 -26 18 -19 26 -22 26
-12 0 9 -6 21 -14 27 -19 16 -78 33 -71 20z"/>
<path d="M2365 4590 c3 -5 8 -10 11 -10 2 0 4 5 4 10 0 6 -5 10 -11 10 -5 0
-7 -4 -4 -10z"/>
<path d="M9251 4410 c75 -74 191 -204 258 -287 115 -144 156 -188 115 -125
-50 77 -277 344 -351 413 -123 115 -139 114 -22 -1z"/>
<path d="M2720 4172 c0 -21 31 -61 64 -84 31 -22 31 -22 -8 27 -55 70 -56 71
-56 57z"/>
<path d="M4826 4129 c16 -17 43 -37 59 -46 24 -11 20 -5 -20 31 -57 51 -84 62
-39 15z"/>
<path d="M5230 4120 c-12 -8 -9 -10 13 -10 15 0 27 5 27 10 0 13 -20 13 -40 0z"/>
<path d="M5343 4075 c-8 -22 6 -33 17 -15 13 20 12 30 0 30 -6 0 -13 -7 -17
-15z"/>
<path d="M3310 4068 c0 -7 -3 -24 -7 -37 -4 -16 -2 -22 4 -18 14 9 23 56 12
63 -5 3 -9 -1 -9 -8z"/>
<path d="M3030 4041 c0 -12 63 -62 69 -55 6 5 -50 64 -61 64 -4 0 -8 -4 -8 -9z"/>
<path d="M2830 4005 c-14 -16 -3 -20 19 -6 8 5 9 11 3 15 -5 3 -15 -1 -22 -9z"/>
<path d="M4200 3259 c-26 -15 -29 -18 -10 -13 35 9 78 33 60 33 -8 0 -31 -9
-50 -20z"/>
<path d="M3765 3240 c11 -5 27 -9 35 -9 9 0 8 4 -5 9 -11 5 -27 9 -35 9 -9 0
-8 -4 5 -9z"/>
<path d="M10030 2935 c-2 -16 -3 -40 -2 -53 0 -12 -3 -20 -7 -18 -8 5 -47
-117 -57 -183 -4 -22 -11 -41 -16 -41 -6 0 -8 -6 -5 -14 3 -7 0 -19 -6 -25 -8
-8 -8 -11 0 -11 10 0 74 163 77 198 1 9 8 35 15 57 7 22 11 58 8 80 -3 36 -4
37 -7 10z"/>
<path d="M0 2940 c0 -5 15 -11 33 -14 248 -37 400 -73 584 -142 202 -75 393
-185 483 -278 46 -48 43 -52 -25 -36 -81 20 -304 40 -444 40 -79 0 -142 -2
-140 -4 2 -2 85 -9 183 -15 200 -12 348 -32 458 -61 40 -10 74 -17 77 -15 16
17 -118 138 -230 209 -242 153 -598 285 -854 315 -111 13 -125 14 -125 1z"/>
<path d="M0 2554 c0 -7 32 -14 88 -19 98 -7 340 -41 364 -50 9 -4 19 -2 22 4
8 13 -76 38 -169 51 -130 19 -305 26 -305 14z"/>
<path d="M9900 2530 c0 -5 5 -10 11 -10 5 0 7 5 4 10 -3 6 -8 10 -11 10 -2 0
-4 -4 -4 -10z"/>
<path d="M9890 2490 c0 -11 2 -20 4 -20 2 0 6 9 9 20 3 11 1 20 -4 20 -5 0 -9
-9 -9 -20z"/>
<path d="M495 2470 c5 -8 36 -20 210 -85 55 -21 176 -73 269 -116 93 -44 171
-78 172 -76 4 4 -158 85 -291 146 -171 78 -373 152 -360 131z"/>
<path d="M9853 2414 c-12 -15 -32 -47 -45 -73 -13 -25 -25 -48 -28 -51 -3 -3
-13 -20 -24 -39 -14 -24 -15 -32 -5 -29 8 3 13 11 12 17 -2 6 1 11 6 11 6 0
21 23 35 50 14 28 37 70 52 95 29 51 28 58 -3 19z"/>
<path d="M9718 2188 c-8 -13 -23 -39 -32 -58 l-17 -35 25 29 c14 17 23 33 20
37 -2 4 3 10 12 13 8 3 13 10 10 15 -4 5 0 12 6 14 8 4 9 6 2 6 -7 1 -18 -9
-26 -21z"/>
<path d="M1305 2093 c17 -16 41 -36 55 -46 l25 -18 -30 6 c-239 50 -615 43
-863 -15 -213 -50 -492 -177 -492 -223 0 -18 2 -18 33 2 17 12 71 42 118 66
332 169 795 225 1214 144 171 -32 475 -173 475 -220 0 -3 -21 -9 -48 -13 -52
-7 -433 -132 -588 -194 -204 -81 -563 -256 -608 -296 -25 -22 -39 -26 -91 -26
-167 0 -505 -51 -505 -76 0 -16 11 -17 65 -4 287 70 837 78 1320 19 179 -22
402 -58 544 -89 102 -22 140 -25 106 -10 -32 15 -295 66 -480 94 -301 45 -531
66 -730 66 -135 0 -186 3 -183 11 6 19 119 83 250 142 68 30 152 69 188 85
244 111 565 220 745 252 53 9 63 8 85 -8 14 -10 36 -25 50 -32 l25 -13 -25 28
c-21 23 -304 257 -350 289 -8 5 5 -11 30 -37 24 -26 42 -47 39 -47 -9 0 -294
135 -330 156 -59 35 -78 37 -44 7z"/>
<path d="M9649 2073 c-13 -16 -12 -17 4 -4 16 13 21 21 13 21 -2 0 -10 -8 -17
-17z"/>
<path d="M10041 2011 c-1 -19 -102 -196 -164 -291 -65 -98 -144 -198 -231
-289 -104 -108 -39 -67 74 48 149 151 338 448 327 517 -2 16 -5 23 -6 15z"/>
<path d="M9424 1798 l-19 -23 23 19 c21 18 27 26 19 26 -2 0 -12 -10 -23 -22z"/>
<path d="M10014 1597 c-101 -83 -319 -215 -445 -268 -41 -18 -99 -42 -129 -55
-82 -35 -41 -29 79 12 160 55 265 112 428 231 83 62 110 89 99 100 -2 2 -16
-7 -32 -20z"/>
<path d="M6983 1251 c-99 -54 -169 -115 -319 -273 -59 -63 -121 -150 -95 -134
4 3 13 -68 20 -157 7 -89 18 -234 26 -322 8 -88 17 -204 20 -257 5 -76 10 -98
23 -103 9 -3 57 -3 106 1 l89 7 -6 151 c-4 83 -16 221 -27 306 -11 85 -28 223
-39 305 -17 130 -25 229 -22 272 1 16 150 140 224 187 31 20 57 39 57 41 0 7
-1 7 -57 -24z"/>
<path d="M7042 1215 c0 -16 2 -22 5 -12 2 9 2 23 0 30 -3 6 -5 -1 -5 -18z"/>
<path d="M903 1193 c9 -2 23 -2 30 0 6 3 -1 5 -18 5 -16 0 -22 -2 -12 -5z"/>
<path d="M694 1175 c-190 -30 -467 -107 -599 -168 -102 -47 -100 -45 -93 -52
3 -3 34 7 69 23 88 40 255 94 275 90 12 -2 -1 -15 -39 -40 -78 -52 -202 -178
-261 -265 -74 -109 -49 -109 33 0 82 110 254 265 348 314 65 34 175 65 333 93
122 21 66 26 -66 5z"/>
<path d="M10013 1172 c-46 -45 -158 -124 -283 -199 -78 -47 -261 -132 -351
-163 -118 -41 -133 -69 -17 -33 200 61 541 257 658 378 34 35 27 51 -7 17z"/>
<path d="M1544 1072 c-10 -2 -64 -17 -119 -34 -349 -107 -770 -379 -1090 -703
-128 -129 -260 -298 -251 -321 10 -25 28 -11 75 57 77 113 224 268 381 403
322 276 745 521 963 558 78 13 445 16 667 6 89 -5 123 -4 100 2 -62 17 -665
43 -726 32z"/>
<path d="M8740 1056 c0 -2 14 -14 30 -26 17 -12 30 -19 30 -16 0 2 -13 14 -30
26 -16 12 -30 19 -30 16z"/>
<path d="M8810 1006 c0 -2 8 -10 18 -17 15 -13 16 -12 3 4 -13 16 -21 21 -21
13z"/>
<path d="M8850 976 c0 -3 9 -10 20 -16 11 -6 20 -8 20 -6 0 3 -9 10 -20 16
-11 6 -20 8 -20 6z"/>
<path d="M8950 915 c0 -2 33 -22 74 -44 75 -42 216 -104 216 -95 0 5 -149 79
-237 119 -29 13 -53 22 -53 20z"/>
<path d="M9395 714 c159 -56 236 -68 442 -69 149 0 195 3 205 14 11 11 7 12
-22 5 -108 -24 -427 5 -607 56 -97 27 -104 24 -18 -6z"/>
<path d="M5988 703 c7 -3 16 -2 19 1 4 3 -2 6 -13 5 -11 0 -14 -3 -6 -6z"/>
<path d="M6247 447 c-32 -34 -78 -78 -104 -97 -72 -54 -216 -200 -252 -255
l-33 -50 39 45 c21 24 72 76 113 115 215 202 319 308 298 304 -2 0 -29 -28
-61 -62z"/>
<path d="M1860 50 c19 -16 37 -27 39 -24 8 7 -30 42 -52 48 -17 4 -14 -1 13
-24z"/>
<path d="M2418 49 c11 -18 27 -36 33 -38 7 -2 3 11 -9 30 -11 18 -27 36 -33
38 -7 2 -3 -11 9 -30z"/>
<path d="M5836 33 c-6 -14 -5 -15 5 -6 7 7 10 15 7 18 -3 3 -9 -2 -12 -12z"/>
</g>
</svg>
